<?xml version="1.0" encoding="utf-8"?>
<!-- Generator: Adobe Illustrator 27.7.0, SVG Export Plug-In . SVG Version: 6.00 Build 0)  -->
<svg version="1.1" id="Capa_1" xmlns="http://www.w3.org/2000/svg" xmlns:xlink="http://www.w3.org/1999/xlink" x="0px" y="0px"
	 viewBox="0 0 492 226" style="enable-background:new 0 0 492 226;" xml:space="preserve">
<style type="text/css">
	.st0{clip-path:url(#SVGID_00000109004501664082917580000015940068192610727096_);}
	.st1{opacity:0.3;fill:none;stroke:#42B5C3;stroke-width:4.8;enable-background:new    ;}
	.st2{opacity:0.12;fill:none;stroke:#42B5C3;stroke-width:4.8;stroke-dasharray:8.4;enable-background:new    ;}
	.st3{opacity:0.7;}
	.st4{fill:none;stroke:#42B5C3;stroke-width:4;}
	.st5{fill:#42B5C3;}
	.st6{opacity:0.7;fill:none;stroke:#42B5C3;stroke-width:4;enable-background:new    ;}
	.st7{fill-rule:evenodd;clip-rule:evenodd;fill:#42B5C3;}
</style>
<g>
	<defs>
		<rect id="SVGID_1_" width="492" height="226"/>
	</defs>
	<clipPath id="SVGID_00000088813246748546271380000005931560918753825430_">
		<use xlink:href="#SVGID_1_"  style="overflow:visible;"/>
	</clipPath>
	<g style="clip-path:url(#SVGID_00000088813246748546271380000005931560918753825430_);">
		<ellipse class="st1" cx="206" cy="190" rx="9.6" ry="9.6"/>
		<ellipse class="st1" cx="393" cy="103" rx="9.6" ry="9.6"/>
		<ellipse class="st1" cx="345" cy="18" rx="9.6" ry="9.6"/>
		<ellipse class="st1" cx="136" cy="23" rx="9.6" ry="9.6"/>
		<ellipse class="st1" cx="16" cy="63" rx="9.6" ry="9.6"/>
		<ellipse class="st1" cx="51" cy="171" rx="9.6" ry="9.6"/>
		<path class="st2" d="M222.7,178.4l38.5-25.9 M66.7,160.4l38.5-25.9 M244.9,66.7l19.9,23.6 M354.3,122.8l26.1-13.6 M159,118.8
			l99.6,5.1 M33.8,72.2l68,33.6 M409.8,117l50.7,40.6 M157.3,26.9l42.7,17 M408.5,92.5l55.3-28.1 M313,89l24.3-57.1 M358.5,181.6
			L319.3,151"/>
		<g class="st3">
			<path class="st4" d="M363.5,190.3l4.6,21.5c0.2,1.1,1.3,1.8,2.4,1.5c0,0,0,0,0,0l33.2-7.1c1.1-0.2,1.8-1.3,1.5-2.4c0,0,0,0,0,0
				l-4.6-21.5c-0.2-1.1-1.3-1.8-2.4-1.5c0,0,0,0,0,0l-33.2,7.1C364,188.1,363.3,189.2,363.5,190.3
				C363.5,190.3,363.5,190.3,363.5,190.3z"/>
			<path class="st5" d="M371.9,199.4l14.7-3.1l0.6,2.9l-14.7,3.1L371.9,199.4z M377.6,216.6l20.5-4.4l0.6,2.9l-20.5,4.4L377.6,216.6
				z M373,204.3l9.8-2.1l0.6,2.9l-9.8,2.1L373,204.3z M374.4,196.8c1.6-0.3,2.7-1.9,2.3-3.6c-0.3-1.6-1.9-2.7-3.6-2.3l0,0
				c-1.6,0.3-2.7,1.9-2.3,3.6C371.2,196.1,372.8,197.2,374.4,196.8z"/>
		</g>
		<path class="st6" d="M464.3,169.8l15.7,9.8l9.2-16l-6-5.8l-16.3,4.1L464.3,169.8L464.3,169.8z M126,120.4l-12-12L125.3,97l12,12
			C137.4,109.1,126,120.4,126,120.4z M126,120.4l11.3-11.3l5.5,5.5c1.3,1.3,1.3,3.4,0,4.6l-6.7,6.7c-1.3,1.3-3.4,1.3-4.6,0
			C131.5,125.8,126.1,120.4,126,120.4z"/>
		<path class="st7" d="M304,152c-31.2,0-43-27.5-43-27.5S272.8,97,304,97s43,27.5,43,27.5S335.2,152,304,152z M304.5,114.7v9.2h9.2
			c0,0.1,0,0.3,0,0.4c0,5.3-4.3,9.6-9.6,9.6c-5.3,0-9.6-4.3-9.6-9.6c0-5.3,4.3-9.6,9.6-9.6C304.3,114.7,304.4,114.7,304.5,114.7z
			 M324,123.6c0,11-8.9,19.9-19.9,19.9s-19.9-8.9-19.9-19.9s8.9-19.9,19.9-19.9S324,112.6,324,123.6z"/>
		<g class="st3">
			<path class="st4" d="M214,71.8l16.7-16.7l-11.3-11.3l-16.7,16.7l-0.1,11.4L214,71.8L214,71.8z"/>
			<path class="st4" d="M218.8,44.4l11.3,11.3l3.5-3.5c2.1-2.1,2.1-5.4,0-7.5c0,0,0,0,0,0l-3.8-3.8c-2.1-2.1-5.4-2.1-7.5,0
				c0,0,0,0,0,0L218.8,44.4L218.8,44.4z"/>
		</g>
		<g class="st3">
			<path class="st4" d="M471.2,41.6l21.5-4.6l6,28.4L477.3,70L471.2,41.6z"/>
			<path class="st5" d="M486.3,63c1.1-0.2,1.8-1.3,1.5-2.4c-0.2-1.1-1.3-1.8-2.4-1.6c-1.1,0.2-1.8,1.3-1.5,2.4S485.2,63.2,486.3,63
				L486.3,63z"/>
		</g>
	</g>
</g>
</svg>
