<?xml version="1.0" encoding="utf-8"?>
<!-- Generator: Adobe Illustrator 27.7.0, SVG Export Plug-In . SVG Version: 6.00 Build 0)  -->
<svg version="1.1" id="Capa_1" xmlns="http://www.w3.org/2000/svg" xmlns:xlink="http://www.w3.org/1999/xlink" x="0px" y="0px"
	 viewBox="0 0 229 20" style="enable-background:new 0 0 229 20;" xml:space="preserve">
<style type="text/css">
	.st0{fill:url(#SVGID_1_);}
	.st1{fill:url(#SVGID_00000054234973222725904490000003789138980637155234_);}
	.st2{fill:#081C43;}
</style>
<g>
	
		<linearGradient id="SVGID_1_" gradientUnits="userSpaceOnUse" x1="3.2325" y1="1065.0895" x2="14.0613" y2="1072.5375" gradientTransform="matrix(1 0 0 1 0 -1058)">
		<stop  offset="8.420075e-02" style="stop-color:#006181"/>
		<stop  offset="0.8541" style="stop-color:#006D90"/>
		<stop  offset="0.8757" style="stop-color:#006D91"/>
	</linearGradient>
	<path class="st0" d="M16.2,2.9c0.1,0.2,0.1,0.5,0,0.7l-1.7,2.5l-1.2,1.7l-1.2,1.7L7.5,16l-2.6,3.6c-0.1,0.2-0.3,0.3-0.5,0.3H1.1
		c-0.5,0-0.8-0.5-0.5-0.9l2.1-3l7-10l1.2-1.7l1.2-1.7l1.5-2.1c0.2-0.3,0.7-0.3,1,0l0.6,0.9L16.2,2.9z"/>
	
		<linearGradient id="SVGID_00000122690950715125362230000014725894295912111291_" gradientUnits="userSpaceOnUse" x1="11.2859" y1="1069.7211" x2="23.3273" y2="1078.0031" gradientTransform="matrix(1 0 0 1 0 -1058)">
		<stop  offset="7.493364e-02" style="stop-color:#1DB1C2"/>
		<stop  offset="0.3427" style="stop-color:#2DB6C6"/>
		<stop  offset="0.7047" style="stop-color:#48BECC"/>
	</linearGradient>
	<path style="fill:url(#SVGID_00000122690950715125362230000014725894295912111291_);" d="M23.1,19.9H6.8c-0.5,0-0.8-0.5-0.5-0.9
		l1.9-2.7C8.3,16.1,8.5,16,8.7,16h6.9c0.5,0,0.8-0.5,0.5-0.9L15,13.6l-1.2-1.7l0,0l-1-1.4c-0.1-0.2-0.1-0.5,0-0.7l1-1.4L15,6.7
		l1.5-2.1c0.2-0.3,0.7-0.3,1,0l0.7,1l1,1.4c0.1,0.2,0.1,0.5,0,0.7l-1.5,2.1c-0.1,0.2-0.1,0.5,0,0.7l3.9,5.5l2.1,3
		C23.9,19.4,23.6,19.9,23.1,19.9z"/>
</g>
<g>
	<path class="st2" d="M27.8,18.1c-0.7,0-1.2-0.2-1.6-0.7c-0.3-0.5-0.3-1.1,0-1.8l5.7-12.3c0.3-0.6,0.6-1,1-1.3s0.9-0.4,1.4-0.4
		s1,0.1,1.4,0.4s0.7,0.7,1,1.3l5.7,12.3c0.4,0.8,0.4,1.4,0,1.9c-0.3,0.5-0.8,0.7-1.5,0.7c-0.6,0-1.1-0.1-1.4-0.4
		c-0.3-0.3-0.6-0.7-0.9-1.3L38,14.6h-7.2L30,16.3c-0.3,0.6-0.6,1.1-0.9,1.3C28.8,17.9,28.4,18.1,27.8,18.1z M34.3,6.1l-2.2,5.3h4.5
		L34.3,6.1L34.3,6.1z"/>
	<path class="st2" d="M50.2,18.1c-1.3,0-2.4-0.2-3.3-0.7c-0.9-0.5-1.7-1.2-2.2-2c-0.5-0.9-0.8-1.9-0.8-3.2c0-1.2,0.3-2.3,0.8-3.2
		s1.3-1.6,2.2-2c0.9-0.5,2.1-0.7,3.3-0.7c0.4,0,0.9,0,1.4,0.1s1,0.2,1.5,0.5c0.4,0.1,0.6,0.3,0.8,0.6s0.2,0.6,0.2,0.9
		c0,0.3-0.1,0.6-0.3,0.9c-0.2,0.3-0.4,0.4-0.7,0.5s-0.6,0.1-1-0.1c-0.5-0.2-1-0.3-1.5-0.3c-0.8,0-1.4,0.2-1.9,0.7
		c-0.4,0.5-0.7,1.2-0.7,2.1c0,0.9,0.2,1.6,0.7,2.1c0.4,0.5,1.1,0.7,1.9,0.7c0.2,0,0.5,0,0.8-0.1s0.5-0.1,0.8-0.3
		c0.4-0.2,0.7-0.2,1-0.1c0.3,0.1,0.5,0.3,0.6,0.5s0.2,0.7,0.2,1c0,0.3,0,0.6-0.2,0.9s-0.4,0.5-0.8,0.6c-0.5,0.2-1,0.4-1.5,0.5
		C51.1,18.1,50.6,18.1,50.2,18.1z"/>
	<path class="st2" d="M61.7,18.1c-1.7,0-3-0.4-3.8-1.2c-0.8-0.8-1.2-2-1.2-3.6V9.6h-0.8c-1,0-1.5-0.5-1.5-1.5s0.5-1.5,1.5-1.5h0.8
		V5.1c0-0.7,0.2-1.2,0.5-1.5C57.5,3.2,58.1,3,58.7,3c1.4,0,2,0.7,2,2.1v1.4h1.9c1,0,1.6,0.5,1.6,1.5s-0.5,1.5-1.6,1.5h-1.9v3.6
		c0,1.1,0.6,1.7,1.7,1.7c0.2,0,0.4,0,0.6-0.1s0.4-0.1,0.6-0.1c0.2,0,0.4,0.1,0.6,0.2s0.2,0.5,0.2,1.1c0,0.5-0.1,0.8-0.2,1.2
		c-0.1,0.3-0.4,0.5-0.7,0.7C63.3,17.9,63,18,62.6,18C62.3,18.1,62,18.1,61.7,18.1z"/>
	<path class="st2" d="M70.3,18.1c-0.7,0-1.4-0.1-2.1-0.2s-1.3-0.3-1.9-0.5c-0.5-0.2-0.8-0.5-0.9-0.8c-0.1-0.4-0.2-0.7,0-1.1
		s0.3-0.6,0.6-0.8c0.3-0.2,0.7-0.2,1.1,0c0.6,0.2,1.2,0.4,1.7,0.5s1,0.1,1.5,0.1c0.6,0,1-0.1,1.2-0.2s0.4-0.4,0.4-0.6
		c0-0.2-0.1-0.4-0.2-0.5c-0.2-0.1-0.4-0.2-0.7-0.3l-2.6-0.4c-1-0.2-1.7-0.5-2.2-1s-0.8-1.2-0.8-2.1c0-0.8,0.2-1.5,0.7-2.1
		c0.4-0.6,1.1-1,1.9-1.3s1.7-0.5,2.7-0.5c0.7,0,1.3,0.1,1.9,0.2s1.1,0.3,1.7,0.5c0.4,0.2,0.7,0.4,0.8,0.8c0.1,0.4,0.1,0.7,0,1
		s-0.4,0.6-0.7,0.8c-0.3,0.2-0.7,0.2-1.1,0c-0.5-0.2-1-0.3-1.3-0.4C71.5,9.1,71.1,9,70.8,9c-0.6,0-1.1,0.1-1.3,0.3S69,9.7,69,9.9
		c0,0.4,0.3,0.7,0.9,0.8l2.6,0.4c1,0.2,1.7,0.5,2.3,1c0.5,0.5,0.8,1.2,0.8,2.1c0,1.2-0.5,2.2-1.4,2.9C73.1,17.8,71.9,18.1,70.3,18.1
		z"/>
	<path class="st2" d="M79.4,4.7c-0.7,0-1.3-0.2-1.7-0.5c-0.4-0.3-0.6-0.8-0.6-1.5c0-0.6,0.2-1.1,0.6-1.4s0.9-0.5,1.7-0.5
		c1.5,0,2.3,0.7,2.3,2c0,0.6-0.2,1.1-0.6,1.5C80.7,4.5,80.1,4.7,79.4,4.7z M79.4,18.1c-0.7,0-1.2-0.2-1.5-0.6s-0.5-0.9-0.5-1.7V8.6
		c0-0.7,0.2-1.3,0.5-1.7c0.3-0.4,0.8-0.6,1.5-0.6s1.2,0.2,1.5,0.6c0.4,0.4,0.5,0.9,0.5,1.7v7.3c0,0.7-0.2,1.3-0.5,1.7
		C80.6,17.9,80.1,18.1,79.4,18.1z"/>
	<path class="st2" d="M88.5,18.1c-0.7,0-1.4-0.1-2.1-0.2s-1.3-0.3-1.9-0.5c-0.5-0.2-0.8-0.5-0.9-0.8c-0.1-0.4-0.2-0.7,0-1.1
		s0.3-0.6,0.6-0.8c0.3-0.2,0.7-0.2,1.1,0c0.6,0.2,1.2,0.4,1.7,0.5s1,0.1,1.5,0.1c0.6,0,1-0.1,1.2-0.2c0.2-0.2,0.4-0.4,0.4-0.6
		c0-0.2-0.1-0.4-0.2-0.5s-0.4-0.2-0.7-0.3l-2.6-0.4c-1-0.2-1.7-0.5-2.2-1s-0.8-1.2-0.8-2.1c0-0.8,0.2-1.5,0.7-2.1
		c0.4-0.6,1.1-1,1.9-1.3s1.7-0.5,2.7-0.5c0.7,0,1.3,0.1,1.9,0.2s1.1,0.3,1.7,0.5c0.4,0.2,0.7,0.4,0.8,0.8c0.1,0.4,0.1,0.7,0,1
		s-0.4,0.6-0.7,0.8c-0.3,0.2-0.7,0.2-1.1,0c-0.5-0.2-1-0.3-1.3-0.4C89.7,9.1,89.3,9,89,9c-0.6,0-1.1,0.1-1.3,0.3s-0.4,0.4-0.4,0.6
		c0,0.4,0.3,0.7,0.9,0.8l2.6,0.4c1,0.2,1.7,0.5,2.3,1c0.5,0.5,0.8,1.2,0.8,2.1c0,1.2-0.5,2.2-1.4,2.9C91.4,17.8,90.1,18.1,88.5,18.1
		z"/>
	<path class="st2" d="M104.9,17.9c-1.5,0-2.2-0.7-2.2-2.2V3.8c0-1.5,0.7-2.2,2.2-2.2h4.5c2.8,0,5,0.7,6.5,2.1s2.3,3.4,2.3,6
		s-0.8,4.6-2.3,6s-3.7,2.1-6.5,2.1h-4.5V17.9z M106.9,14.4h2.2c1.6,0,2.8-0.4,3.6-1.2s1.2-2,1.2-3.5c0-1.6-0.4-2.8-1.2-3.5
		c-0.8-0.8-2-1.1-3.6-1.1h-2.2V14.4z"/>
	<path class="st2" d="M126.4,18.1c-1.3,0-2.4-0.2-3.3-0.7s-1.7-1.2-2.2-2c-0.5-0.9-0.8-1.9-0.8-3.2c0-1.2,0.3-2.3,0.8-3.2
		s1.2-1.6,2.2-2c0.9-0.5,2-0.7,3.3-0.7s2.4,0.2,3.3,0.7s1.7,1.2,2.2,2s0.8,1.9,0.8,3.2c0,1.2-0.3,2.3-0.8,3.2s-1.2,1.6-2.2,2
		C128.7,17.9,127.6,18.1,126.4,18.1z M126.4,15.1c0.6,0,1.1-0.2,1.5-0.7s0.6-1.2,0.6-2.2s-0.2-1.8-0.6-2.2c-0.4-0.5-0.9-0.7-1.5-0.7
		s-1.1,0.2-1.5,0.7s-0.6,1.2-0.6,2.2s0.2,1.7,0.6,2.2S125.7,15.1,126.4,15.1z"/>
	<path class="st2" d="M140.4,18.1c-1.3,0-2.4-0.2-3.3-0.7c-0.9-0.5-1.7-1.2-2.2-2c-0.5-0.9-0.8-1.9-0.8-3.2c0-1.2,0.3-2.3,0.8-3.2
		s1.3-1.6,2.2-2c0.9-0.5,2.1-0.7,3.3-0.7c0.4,0,0.9,0,1.4,0.1s1,0.2,1.5,0.5c0.4,0.1,0.6,0.3,0.8,0.6c0.2,0.3,0.2,0.6,0.2,0.9
		c0,0.3-0.1,0.6-0.3,0.9c-0.2,0.3-0.4,0.4-0.7,0.5s-0.6,0.1-1-0.1c-0.5-0.2-1-0.3-1.5-0.3c-0.8,0-1.4,0.2-1.9,0.7
		c-0.4,0.5-0.7,1.2-0.7,2.1c0,0.9,0.2,1.6,0.7,2.1c0.4,0.5,1.1,0.7,1.9,0.7c0.2,0,0.5,0,0.8-0.1s0.5-0.1,0.8-0.3
		c0.4-0.2,0.7-0.2,1-0.1s0.5,0.3,0.6,0.5c0.2,0.3,0.3,0.5,0.3,0.9c0,0.3,0,0.6-0.2,0.9s-0.4,0.5-0.8,0.6c-0.5,0.2-1,0.4-1.5,0.5
		C141.3,18.1,140.9,18.1,140.4,18.1z"/>
	<path class="st2" d="M150.2,18.1c-1.5,0-2.6-0.4-3.3-1.2c-0.7-0.8-1-2-1-3.7V8.4c0-1.4,0.7-2,2-2c0.7,0,1.2,0.2,1.5,0.5
		c0.4,0.4,0.5,0.9,0.5,1.5v4.9c0,1.1,0.5,1.7,1.4,1.7c0.6,0,1-0.2,1.4-0.6s0.5-0.9,0.5-1.6V8.4c0-1.4,0.7-2,2-2
		c0.7,0,1.2,0.2,1.5,0.5c0.4,0.4,0.5,0.9,0.5,1.5V16c0,1.4-0.7,2.1-2,2.1c-1.2,0-1.8-0.6-2-1.7C152.7,17.5,151.6,18.1,150.2,18.1z"
		/>
	<path class="st2" d="M162.1,18.1c-0.7,0-1.2-0.2-1.5-0.5c-0.3-0.4-0.5-0.9-0.5-1.5V8.4c0-1.4,0.7-2,2-2c1.2,0,1.9,0.6,2,1.7
		c0.3-0.6,0.8-1,1.4-1.3c0.6-0.3,1.3-0.5,2.1-0.5s1.4,0.2,2,0.5s1,0.9,1.3,1.6c0.4-0.7,0.9-1.2,1.6-1.5s1.4-0.5,2.2-0.5
		c1.3,0,2.3,0.4,2.9,1.2c0.6,0.8,1,2,1,3.7V16c0,0.7-0.2,1.2-0.5,1.5s-0.9,0.5-1.5,0.5s-1.1-0.2-1.5-0.5s-0.5-0.9-0.5-1.5v-4.7
		c0-0.7-0.1-1.1-0.3-1.4c-0.2-0.3-0.5-0.4-1-0.4c-0.6,0-1,0.2-1.3,0.6c-0.3,0.4-0.4,1-0.4,1.7V16c0,0.7-0.2,1.2-0.5,1.5
		s-0.9,0.5-1.5,0.5c-0.7,0-1.2-0.2-1.5-0.5s-0.5-0.9-0.5-1.5v-4.7c0-0.7-0.1-1.1-0.3-1.4c-0.2-0.3-0.5-0.4-1-0.4
		c-0.6,0-1,0.2-1.3,0.6c-0.3,0.4-0.4,1-0.4,1.7V16C164.1,17.4,163.4,18.1,162.1,18.1z"/>
	<path class="st2" d="M187.1,18.1c-1.4,0-2.6-0.2-3.6-0.7s-1.8-1.2-2.3-2.1s-0.8-1.9-0.8-3.2c0-1.2,0.3-2.2,0.8-3.1s1.2-1.6,2.1-2.1
		c0.9-0.5,1.9-0.7,3.1-0.7c1.1,0,2.1,0.2,3,0.7c0.8,0.5,1.5,1.2,1.9,2c0.5,0.9,0.7,1.9,0.7,3.1c0,0.6-0.4,0.9-1.1,0.9h-6.6
		c0.1,0.7,0.4,1.3,0.9,1.6s1.1,0.5,2,0.5c0.3,0,0.7,0,1.2-0.1c0.4-0.1,0.9-0.2,1.3-0.4c0.5-0.2,0.9-0.2,1.2,0s0.6,0.4,0.7,0.8
		s0.1,0.7,0,1.1s-0.4,0.7-0.9,0.9c-0.5,0.3-1.1,0.4-1.7,0.6C188.3,18.1,187.7,18.1,187.1,18.1z M186.5,8.9c-0.6,0-1.1,0.2-1.5,0.6
		c-0.4,0.4-0.6,0.9-0.7,1.6h4.3c0-0.7-0.2-1.3-0.6-1.6C187.6,9.1,187.1,8.9,186.5,8.9z"/>
	<path class="st2" d="M195.9,18.1c-0.7,0-1.2-0.2-1.5-0.5c-0.3-0.4-0.5-0.9-0.5-1.5V8.4c0-1.4,0.7-2,2-2c1.2,0,1.9,0.6,2,1.8
		c0.4-0.6,0.9-1,1.5-1.3s1.3-0.5,2.1-0.5c1.3,0,2.3,0.4,3,1.2s1,2,1,3.7V16c0,0.7-0.2,1.2-0.5,1.5c-0.4,0.4-0.9,0.5-1.5,0.5
		s-1.2-0.2-1.5-0.5s-0.5-0.9-0.5-1.5v-4.7c0-0.7-0.1-1.2-0.4-1.5c-0.2-0.3-0.6-0.4-1-0.4c-0.6,0-1.1,0.2-1.5,0.6s-0.6,0.9-0.6,1.6
		V16C198,17.4,197.3,18.1,195.9,18.1z"/>
	<path class="st2" d="M213.9,18.1c-1.7,0-3-0.4-3.8-1.2c-0.8-0.8-1.2-2-1.2-3.6V9.6h-0.8c-1,0-1.5-0.5-1.5-1.5s0.5-1.5,1.5-1.5h0.8
		V5.1c0-0.7,0.2-1.2,0.5-1.5c0.4-0.4,0.9-0.5,1.5-0.5c1.4,0,2,0.7,2,2.1v1.4h1.9c1,0,1.6,0.5,1.6,1.5s-0.5,1.5-1.6,1.5H213v3.6
		c0,1.1,0.6,1.7,1.7,1.7c0.2,0,0.4,0,0.6-0.1s0.4-0.1,0.6-0.1c0.2,0,0.4,0.1,0.6,0.2s0.2,0.5,0.2,1.1c0,0.5-0.1,0.8-0.2,1.2
		c-0.1,0.3-0.4,0.5-0.7,0.7c-0.2,0.1-0.5,0.1-0.9,0.2C214.4,18.1,214.1,18.1,213.9,18.1z"/>
	<path class="st2" d="M222.5,18.1c-0.7,0-1.4-0.1-2.1-0.2c-0.7-0.1-1.3-0.3-1.9-0.5c-0.5-0.2-0.8-0.5-0.9-0.8
		c-0.1-0.4-0.2-0.7,0-1.1s0.3-0.6,0.6-0.8s0.7-0.2,1.1,0c0.6,0.2,1.2,0.4,1.7,0.5s1,0.1,1.5,0.1c0.6,0,1-0.1,1.2-0.2
		c0.2-0.2,0.4-0.4,0.4-0.6c0-0.2-0.1-0.4-0.2-0.5s-0.4-0.2-0.7-0.3l-2.6-0.4c-1-0.2-1.7-0.5-2.2-1s-0.8-1.2-0.8-2.1
		c0-0.8,0.2-1.5,0.7-2.1c0.4-0.6,1.1-1,1.9-1.3c0.8-0.3,1.7-0.5,2.7-0.5c0.7,0,1.3,0.1,1.9,0.2c0.6,0.1,1.1,0.3,1.7,0.5
		c0.4,0.2,0.7,0.4,0.8,0.8c0.1,0.4,0.1,0.7,0,1s-0.4,0.6-0.7,0.8s-0.7,0.2-1.1,0c-0.5-0.2-1-0.3-1.3-0.4C223.7,9.1,223.3,9,223,9
		c-0.6,0-1.1,0.1-1.3,0.3s-0.4,0.4-0.4,0.6c0,0.4,0.3,0.7,0.9,0.8l2.6,0.4c1,0.2,1.7,0.5,2.3,1c0.5,0.5,0.8,1.2,0.8,2.1
		c0,1.2-0.5,2.2-1.4,2.9C225.3,17.8,224.1,18.1,222.5,18.1z"/>
</g>
</svg>
