<?xml version="1.0" encoding="utf-8"?>
<!-- Generator: Adobe Illustrator 27.7.0, SVG Export Plug-In . SVG Version: 6.00 Build 0)  -->
<svg version="1.1" id="Capa_1" xmlns="http://www.w3.org/2000/svg" xmlns:xlink="http://www.w3.org/1999/xlink" x="0px" y="0px"
	 viewBox="0 0 229 20" style="enable-background:new 0 0 229 20;" xml:space="preserve">
<style type="text/css">
	.st0{fill:url(#SVGID_1_);}
	.st1{fill:url(#SVGID_00000124139254512548094460000014769963767838227882_);}
</style>
<linearGradient id="SVGID_1_" gradientUnits="userSpaceOnUse" x1="10.0479" y1="7.0961" x2="20.8767" y2="14.544">
	<stop  offset="8.420075e-02" style="stop-color:#006181"/>
	<stop  offset="0.8541" style="stop-color:#006D90"/>
	<stop  offset="0.8757" style="stop-color:#006D91"/>
</linearGradient>
<path class="st0" d="M23,2.9c0.1,0.2,0.1,0.5,0,0.7l-1.7,2.5l-1.2,1.7l-1.2,1.7L14.3,16l-2.6,3.6c-0.1,0.2-0.3,0.3-0.5,0.3H7.9
	c-0.5,0-0.8-0.5-0.5-0.9l2.1-3l7-10l1.2-1.7l1.2-1.7l1.5-2.1c0.2-0.3,0.7-0.3,1,0L22,1.4L23,2.9z"/>
<linearGradient id="SVGID_00000046328408834658461260000007832558851724736147_" gradientUnits="userSpaceOnUse" x1="18.111" y1="11.7217" x2="30.1524" y2="20.0037">
	<stop  offset="7.493364e-02" style="stop-color:#1DB1C2"/>
	<stop  offset="0.3427" style="stop-color:#2DB6C6"/>
	<stop  offset="0.7047" style="stop-color:#48BECC"/>
</linearGradient>
<path style="fill:url(#SVGID_00000046328408834658461260000007832558851724736147_);" d="M29.9,19.9H13.6c-0.5,0-0.8-0.5-0.5-0.9
	l1.9-2.7c0.1-0.2,0.3-0.3,0.5-0.3h6.9c0.5,0,0.8-0.5,0.5-0.9l-1.1-1.5l-1.2-1.7v0l-1-1.4c-0.1-0.2-0.1-0.5,0-0.7l1-1.4l1.2-1.7
	l1.5-2.1c0.2-0.3,0.7-0.3,1,0l0.7,1l1,1.4c0.1,0.2,0.1,0.5,0,0.7l-1.5,2.1c-0.1,0.2-0.1,0.5,0,0.7l3.9,5.5l2.1,3
	C30.7,19.4,30.4,19.9,29.9,19.9z"/>
<g>
	<path d="M35.2,18.5c-0.5,0-0.8-0.1-0.9-0.4c-0.2-0.3-0.2-0.7,0-1.1l6.1-13.8c0.2-0.3,0.3-0.6,0.6-0.8s0.5-0.2,0.8-0.2
		c0.3,0,0.5,0.1,0.8,0.2c0.2,0.2,0.4,0.4,0.6,0.8L49.3,17c0.2,0.4,0.2,0.8,0.1,1.1c-0.2,0.3-0.5,0.4-0.9,0.4c-0.3,0-0.6-0.1-0.8-0.2
		c-0.2-0.2-0.4-0.4-0.5-0.8l-1.3-3h-8.1l-1.3,3c-0.2,0.4-0.3,0.6-0.5,0.8C35.8,18.5,35.5,18.5,35.2,18.5z M41.8,5l-3.2,7.6H45
		L41.8,5L41.8,5z"/>
	<path d="M58.8,18.6c-1.6,0-3-0.3-4.1-1c-1.1-0.7-2-1.6-2.6-2.8c-0.6-1.2-0.9-2.7-0.9-4.4c0-1.7,0.3-3.1,0.9-4.3
		c0.6-1.2,1.5-2.2,2.6-2.8c1.1-0.7,2.5-1,4.1-1c0.9,0,1.7,0.1,2.6,0.4c0.8,0.2,1.5,0.6,2.1,1c0.3,0.2,0.5,0.5,0.6,0.8
		c0.1,0.3,0,0.6-0.1,0.8c-0.1,0.2-0.4,0.4-0.6,0.5c-0.3,0.1-0.6,0-0.9-0.2c-0.5-0.4-1.1-0.7-1.7-0.8c-0.6-0.2-1.2-0.3-1.9-0.3
		c-1.7,0-3,0.5-3.9,1.6c-0.9,1.1-1.4,2.6-1.4,4.5c0,1.9,0.5,3.5,1.4,4.5c0.9,1.1,2.2,1.6,3.9,1.6c0.7,0,1.3-0.1,1.9-0.3
		c0.6-0.2,1.2-0.5,1.7-0.9c0.3-0.2,0.6-0.3,0.9-0.2c0.3,0.1,0.5,0.2,0.6,0.4c0.1,0.2,0.2,0.5,0.1,0.8c0,0.3-0.2,0.5-0.5,0.7
		c-0.6,0.5-1.4,0.9-2.2,1.1C60.6,18.5,59.7,18.6,58.8,18.6z"/>
	<path d="M71.8,18.5c-0.8,0-1.2-0.4-1.2-1.2v-13h-4.8c-0.7,0-1-0.3-1-1c0-0.6,0.3-1,1-1h11.9c0.7,0,1,0.3,1,1c0,0.7-0.3,1-1,1H73v13
		C73,18.1,72.6,18.5,71.8,18.5z"/>
	<path d="M85.4,18.6c-1,0-2-0.1-3-0.4c-1-0.2-1.8-0.6-2.5-1.1c-0.3-0.2-0.5-0.4-0.5-0.7c-0.1-0.3,0-0.5,0.1-0.8
		c0.1-0.2,0.3-0.4,0.5-0.5c0.2-0.1,0.5,0,0.8,0.2c0.7,0.4,1.4,0.8,2.2,1c0.8,0.2,1.6,0.3,2.5,0.3c1.3,0,2.2-0.2,2.8-0.7
		c0.6-0.5,0.9-1.1,0.9-1.8c0-0.6-0.2-1.1-0.7-1.4c-0.4-0.4-1.2-0.6-2.2-0.8l-2.4-0.5c-1.4-0.3-2.5-0.8-3.2-1.5
		c-0.7-0.7-1.1-1.6-1.1-2.8c0-1,0.3-1.8,0.8-2.5c0.5-0.7,1.2-1.3,2.1-1.7c0.9-0.4,1.9-0.6,3.1-0.6c0.9,0,1.8,0.1,2.6,0.4
		c0.8,0.2,1.6,0.6,2.2,1.1c0.3,0.2,0.4,0.4,0.5,0.7c0,0.3,0,0.5-0.1,0.7c-0.1,0.2-0.3,0.4-0.5,0.4c-0.2,0.1-0.5,0-0.8-0.2
		c-0.6-0.4-1.2-0.7-1.8-0.8s-1.3-0.3-2-0.3c-1.1,0-2,0.2-2.7,0.7c-0.7,0.5-1,1.2-1,2c0,0.6,0.2,1.1,0.6,1.5c0.4,0.4,1.1,0.7,2,0.9
		L87,9.8c1.5,0.3,2.6,0.8,3.4,1.5c0.7,0.7,1.1,1.5,1.1,2.7c0,0.9-0.2,1.8-0.7,2.4c-0.5,0.7-1.2,1.2-2.1,1.6
		C87.7,18.4,86.6,18.6,85.4,18.6z"/>
	<path d="M95.3,18.5c-0.8,0-1.2-0.4-1.2-1.2V3.5c0-0.8,0.4-1.2,1.2-1.2s1.2,0.4,1.2,1.2v13.9C96.5,18.1,96.1,18.5,95.3,18.5z"/>
	<path d="M105.5,18.6c-1,0-2-0.1-3-0.4c-1-0.2-1.8-0.6-2.5-1.1c-0.3-0.2-0.5-0.4-0.5-0.7c-0.1-0.3,0-0.5,0.1-0.8
		c0.1-0.2,0.3-0.4,0.5-0.5c0.2-0.1,0.5,0,0.8,0.2c0.7,0.4,1.4,0.8,2.2,1c0.8,0.2,1.6,0.3,2.5,0.3c1.3,0,2.2-0.2,2.8-0.7
		c0.6-0.5,0.9-1.1,0.9-1.8c0-0.6-0.2-1.1-0.7-1.4c-0.4-0.4-1.2-0.6-2.2-0.8l-2.4-0.5c-1.4-0.3-2.5-0.8-3.2-1.5
		c-0.7-0.7-1.1-1.6-1.1-2.8c0-1,0.3-1.8,0.8-2.5c0.5-0.7,1.2-1.3,2.1-1.7c0.9-0.4,1.9-0.6,3.1-0.6c0.9,0,1.8,0.1,2.6,0.4
		c0.8,0.2,1.6,0.6,2.2,1.1c0.3,0.2,0.4,0.4,0.5,0.7c0,0.3,0,0.5-0.1,0.7c-0.1,0.2-0.3,0.4-0.5,0.4c-0.2,0.1-0.5,0-0.8-0.2
		c-0.6-0.4-1.2-0.7-1.8-0.8c-0.6-0.2-1.3-0.3-2-0.3c-1.1,0-2,0.2-2.7,0.7c-0.7,0.5-1,1.2-1,2c0,0.6,0.2,1.1,0.6,1.5
		c0.4,0.4,1.1,0.7,2,0.9l2.4,0.5c1.5,0.3,2.6,0.8,3.4,1.5c0.7,0.7,1.1,1.5,1.1,2.7c0,0.9-0.2,1.8-0.7,2.4c-0.5,0.7-1.2,1.2-2.1,1.6
		C107.9,18.4,106.8,18.6,105.5,18.6z"/>
	<path d="M117.7,17.1c-0.8,0-1.2-0.4-1.2-1.2V3.4c0-0.8,0.4-1.2,1.2-1.2h4.1c2.4,0,4.3,0.6,5.6,1.9c1.3,1.3,2,3.1,2,5.5
		c0,2.4-0.7,4.2-2,5.5c-1.3,1.3-3.2,1.9-5.6,1.9H117.7z M118.7,15.2h2.9c3.7,0,5.5-1.9,5.5-5.6c0-3.7-1.8-5.6-5.5-5.6h-2.9V15.2z"/>
	<path d="M136.5,17.2c-1,0-1.9-0.2-2.7-0.7c-0.8-0.4-1.3-1-1.8-1.8c-0.4-0.8-0.6-1.7-0.6-2.8s0.2-2,0.6-2.8c0.4-0.8,1-1.4,1.8-1.8
		c0.8-0.4,1.7-0.7,2.7-0.7c1,0,1.9,0.2,2.6,0.7c0.8,0.4,1.3,1,1.8,1.8c0.4,0.8,0.6,1.7,0.6,2.8s-0.2,2-0.6,2.8
		c-0.4,0.8-1,1.4-1.8,1.8C138.4,17,137.5,17.2,136.5,17.2z M136.5,15.6c0.9,0,1.6-0.3,2.1-0.9s0.8-1.5,0.8-2.7
		c0-1.2-0.3-2.1-0.8-2.7s-1.2-0.9-2.1-0.9c-0.9,0-1.6,0.3-2.1,0.9c-0.5,0.6-0.8,1.5-0.8,2.7c0,1.2,0.3,2.1,0.8,2.7
		C134.9,15.3,135.6,15.6,136.5,15.6z"/>
	<path d="M148.5,17.2c-1,0-2-0.2-2.7-0.7c-0.8-0.4-1.4-1.1-1.8-1.9c-0.4-0.8-0.6-1.8-0.6-2.8c0-1.6,0.5-2.9,1.4-3.8
		c0.9-0.9,2.2-1.4,3.7-1.4c0.5,0,1,0.1,1.5,0.2c0.5,0.1,1,0.4,1.5,0.7c0.2,0.1,0.4,0.3,0.4,0.5c0,0.2,0,0.4-0.1,0.6
		c-0.1,0.2-0.3,0.3-0.5,0.4s-0.4,0-0.7-0.1c-0.3-0.2-0.7-0.4-1-0.5c-0.3-0.1-0.7-0.2-1-0.2c-1,0-1.8,0.3-2.3,0.9s-0.8,1.5-0.8,2.7
		c0,1.1,0.3,2,0.8,2.7c0.5,0.7,1.3,1,2.3,1c0.3,0,0.7,0,1-0.1c0.3-0.1,0.7-0.3,1-0.5c0.3-0.1,0.5-0.2,0.7-0.1
		c0.2,0.1,0.3,0.2,0.4,0.4c0.1,0.2,0.1,0.4,0.1,0.6c0,0.2-0.2,0.4-0.4,0.5c-0.4,0.3-0.9,0.6-1.5,0.7
		C149.5,17.2,148.9,17.2,148.5,17.2z"/>
	<path d="M157.4,17.2c-2.5,0-3.7-1.4-3.7-4.1V7.7c0-0.7,0.3-1.1,1-1.1c0.7,0,1.1,0.4,1.1,1.1v5.4c0,0.8,0.2,1.4,0.5,1.8
		s0.9,0.6,1.6,0.6c0.8,0,1.4-0.3,1.9-0.8c0.5-0.5,0.7-1.2,0.7-2.1V7.7c0-0.7,0.4-1.1,1.1-1.1c0.7,0,1,0.4,1,1.1v8.4
		c0,0.7-0.3,1.1-1,1.1c-0.7,0-1-0.4-1-1.1v-0.7c-0.3,0.6-0.8,1.1-1.3,1.4C158.8,17.1,158.1,17.2,157.4,17.2z"/>
	<path d="M166.8,17.2c-0.7,0-1-0.4-1-1.1V7.7c0-0.7,0.3-1.1,1-1.1c0.7,0,1,0.4,1,1.1v0.7c0.3-0.6,0.7-1,1.3-1.4
		c0.5-0.3,1.2-0.5,1.9-0.5c1.6,0,2.6,0.7,3,2.1c0.3-0.6,0.8-1.1,1.4-1.5c0.6-0.4,1.3-0.5,2.1-0.5c2.3,0,3.4,1.4,3.4,4.1v5.4
		c0,0.7-0.4,1.1-1.1,1.1c-0.7,0-1-0.4-1-1.1v-5.3c0-0.9-0.2-1.5-0.5-1.9c-0.3-0.4-0.8-0.6-1.5-0.6c-0.8,0-1.4,0.3-1.8,0.8
		c-0.4,0.5-0.7,1.3-0.7,2.2v4.8c0,0.7-0.4,1.1-1,1.1c-0.7,0-1.1-0.4-1.1-1.1v-5.3c0-0.9-0.1-1.5-0.4-1.9c-0.3-0.4-0.8-0.6-1.5-0.6
		c-0.8,0-1.4,0.3-1.8,0.8c-0.4,0.5-0.7,1.3-0.7,2.2v4.8C167.9,16.8,167.5,17.2,166.8,17.2z"/>
	<path d="M188.7,17.2c-1.7,0-3-0.5-4-1.4c-1-0.9-1.4-2.2-1.4-3.9c0-1.1,0.2-2,0.6-2.8c0.4-0.8,1-1.4,1.8-1.9
		c0.8-0.4,1.6-0.7,2.6-0.7c1.4,0,2.5,0.5,3.3,1.4c0.8,0.9,1.2,2.1,1.2,3.7c0,0.5-0.3,0.7-0.8,0.7h-6.7c0.2,2.1,1.3,3.2,3.4,3.2
		c0.4,0,0.9-0.1,1.3-0.2c0.5-0.1,0.9-0.3,1.3-0.6c0.3-0.2,0.5-0.2,0.8-0.2c0.2,0,0.4,0.2,0.5,0.4c0.1,0.2,0.1,0.4,0.1,0.6
		c-0.1,0.2-0.2,0.4-0.5,0.6c-0.5,0.3-1,0.6-1.7,0.7C189.9,17.2,189.3,17.2,188.7,17.2z M188.4,8.1c-0.9,0-1.6,0.3-2.1,0.8
		s-0.8,1.3-0.9,2.2h5.7c0-1-0.3-1.7-0.8-2.2C189.8,8.4,189.2,8.1,188.4,8.1z"/>
	<path d="M196.2,17.2c-0.7,0-1-0.4-1-1.1V7.7c0-0.7,0.3-1.1,1-1.1c0.7,0,1,0.4,1,1.1v0.8c0.3-0.6,0.8-1.1,1.4-1.4
		c0.6-0.3,1.3-0.5,2-0.5c2.4,0,3.6,1.4,3.6,4.1v5.4c0,0.7-0.3,1.1-1,1.1c-0.7,0-1.1-0.4-1.1-1.1v-5.3c0-0.9-0.2-1.5-0.5-1.9
		c-0.3-0.4-0.9-0.6-1.6-0.6c-0.9,0-1.5,0.3-2,0.8c-0.5,0.5-0.8,1.2-0.8,2.1v4.9C197.3,16.8,196.9,17.2,196.2,17.2z"/>
	<path d="M211.6,17.2c-1.3,0-2.2-0.3-2.9-1c-0.6-0.7-0.9-1.6-0.9-2.9v-5h-1.3c-0.6,0-0.9-0.3-0.9-0.8c0-0.5,0.3-0.8,0.9-0.8h1.3V4.6
		c0-0.7,0.4-1.1,1.1-1.1c0.7,0,1,0.4,1,1.1v2.2h2.5c0.6,0,0.9,0.3,0.9,0.8c0,0.5-0.3,0.8-0.9,0.8h-2.5v4.8c0,0.7,0.2,1.3,0.5,1.7
		c0.3,0.4,0.8,0.6,1.5,0.6c0.3,0,0.5,0,0.7-0.1c0.2,0,0.3-0.1,0.5-0.1c0.2,0,0.3,0.1,0.4,0.2c0.1,0.1,0.1,0.3,0.1,0.6
		c0,0.2,0,0.4-0.1,0.6c-0.1,0.2-0.2,0.3-0.4,0.3c-0.2,0.1-0.4,0.1-0.7,0.2C212.1,17.2,211.8,17.2,211.6,17.2z"/>
	<path d="M218.5,17.2c-0.6,0-1.3-0.1-1.9-0.2s-1.3-0.4-1.8-0.7c-0.2-0.1-0.4-0.3-0.4-0.5c-0.1-0.2,0-0.4,0-0.6s0.2-0.3,0.4-0.4
		s0.4-0.1,0.6,0.1c0.5,0.3,1.1,0.5,1.6,0.6s1,0.2,1.5,0.2c0.7,0,1.3-0.1,1.7-0.4c0.4-0.3,0.6-0.6,0.6-1.1c0-0.4-0.1-0.6-0.4-0.9
		s-0.6-0.4-1.1-0.5l-2-0.4c-1.8-0.4-2.6-1.3-2.6-2.7c0-1,0.4-1.7,1.2-2.3c0.8-0.6,1.8-0.9,3-0.9c1.3,0,2.3,0.3,3.3,0.9
		c0.2,0.1,0.4,0.3,0.4,0.5c0,0.2,0,0.4-0.1,0.6c-0.1,0.2-0.2,0.3-0.4,0.4c-0.2,0.1-0.4,0-0.7-0.1c-0.4-0.3-0.8-0.4-1.3-0.6
		c-0.4-0.1-0.8-0.2-1.2-0.2c-0.7,0-1.3,0.1-1.7,0.4s-0.6,0.6-0.6,1.1c0,0.7,0.5,1.1,1.4,1.3l2,0.4c0.9,0.2,1.6,0.5,2.1,0.9
		c0.5,0.4,0.7,1,0.7,1.8c0,1-0.4,1.7-1.2,2.3C220.8,17,219.8,17.2,218.5,17.2z"/>
</g>
</svg>
