<?xml version="1.0" encoding="utf-8"?>
<!-- Generator: Adobe Illustrator 27.7.0, SVG Export Plug-In . SVG Version: 6.00 Build 0)  -->
<svg version="1.1" id="Capa_1" xmlns="http://www.w3.org/2000/svg" xmlns:xlink="http://www.w3.org/1999/xlink" x="0px" y="0px"
	 viewBox="0 0 650 324" style="enable-background:new 0 0 650 324;" xml:space="preserve">
<style type="text/css">
	.st0{clip-path:url(#SVGID_00000142176247399538378620000009783417582684539067_);}
	.st1{fill:#006B8E;}
	.st2{fill:none;stroke:#00698C;stroke-width:3;}
	.st3{fill:none;stroke:#006D90;stroke-width:4;stroke-linecap:square;stroke-linejoin:bevel;stroke-dasharray:8,8;}
	.st4{clip-path:url(#SVGID_00000125603691347477607950000008200998174361610121_);}
	.st5{fill:none;stroke:#00698B;stroke-width:3;stroke-linecap:square;stroke-miterlimit:10;}
	.st6{fill:none;stroke:#00698B;stroke-width:3;stroke-miterlimit:10;}
	.st7{fill-rule:evenodd;clip-rule:evenodd;fill:#00698B;}
	.st8{fill:#00698C;}
	.st9{fill-rule:evenodd;clip-rule:evenodd;fill:#00698C;}
	.st10{fill:none;stroke:#006D90;stroke-width:4;stroke-linejoin:bevel;stroke-dasharray:8,8;}
	.st11{fill:none;stroke:#006D90;stroke-width:4;}
	.st12{fill:url(#SVGID_00000151541715909672623820000002918923951968861074_);}
	.st13{fill:#006688;}
</style>
<g>
	<g>
		<defs>
			<rect id="SVGID_1_" width="650" height="324"/>
		</defs>
		<clipPath id="SVGID_00000094609339696691178740000000795964967425251217_">
			<use xlink:href="#SVGID_1_"  style="overflow:visible;"/>
		</clipPath>
		<g style="clip-path:url(#SVGID_00000094609339696691178740000000795964967425251217_);">
			<path class="st1" d="M191.9,40.2l12.7-12.7l-2.1-2.1l-11.2,11.2C191.6,37.8,191.9,39,191.9,40.2z"/>
			<path class="st1" d="M188,31.3c0.4,0.4,0.7,0.7,1,1.1l20.9-20.9l-2.1-2.1l-20.9,20.9C187.2,30.7,187.6,31,188,31.3z"/>
			<path class="st1" d="M182.7,28.1L194,16.8l-2.1-2.1l-12.7,12.7C180.3,27.5,181.5,27.7,182.7,28.1z"/>
			<path class="st1" d="M178.4,57.5c-4.2,0-8.5-1.6-11.7-4.8c-6.5-6.5-6.5-17,0-23.4l11.7-11.7l2.1,2.1l-11.7,11.7
				c-5.3,5.3-5.3,13.9,0,19.2s13.9,5.3,19.2,0l11.7-11.7l2.1,2.1l-11.7,11.7C186.9,55.9,182.7,57.5,178.4,57.5L178.4,57.5z"/>
			<path class="st1" d="M178.4,50c-4.9,0-8.9-4-8.9-8.9h3c0,3.2,2.6,5.9,5.9,5.9V50z"/>
			<path class="st2" d="M687.9,261.6l-9.8,4c-4.2,1.7-9-0.3-10.8-4.5l-2.3-5.5c-0.9-2.1-2.9-3.6-5.2-3.7l-1.8-0.1l-2.2-5.3l1-1
				c1.8-1.7,2.3-4.3,1.4-6.6l-2.1-5.1c-1.7-4.2,0.3-9,4.5-10.8l9.8-4"/>
			<path class="st3" d="M425,238.5l18,56"/>
			<path class="st3" d="M635.5,242.3L577,219.9"/>
			<path class="st3" d="M274,229.5l-35,15"/>
			<g>
				<g>
					<defs>

							<rect id="SVGID_00000018946406920223902230000015826501087640909460_" x="187.3" y="236.8" transform="matrix(0.9683 -0.2496 0.2496 0.9683 -57.5901 59.9407)" width="40.5" height="40.5"/>
					</defs>
					<clipPath id="SVGID_00000098207956585588000460000001365345686500593287_">
						<use xlink:href="#SVGID_00000018946406920223902230000015826501087640909460_"  style="overflow:visible;"/>
					</clipPath>
					<g style="clip-path:url(#SVGID_00000098207956585588000460000001365345686500593287_);">
						<path class="st5" d="M217.6,245.1l-24.7,6.4l4.1,16l24.7-6.4L217.6,245.1z"/>
						<path class="st6" d="M201.5,254.7l1.9,7.3"/>
						<path class="st5" d="M199.9,254.4l2.9-0.7"/>
						<path class="st5" d="M201.8,261.6l2.9-0.7"/>
						<path class="st5" d="M225.8,271.7l-27.2,7c-2.5,0.6-5.1-0.9-5.7-3.4l-7-27.2c-0.6-2.5,0.9-5.1,3.4-5.7l27.2-7
							c2.5-0.6,5.1,0.9,5.7,3.4l7,27.2C229.9,268.5,228.3,271,225.8,271.7z"/>
					</g>
				</g>
			</g>
			<path class="st7" d="M121.6,159.1c-0.4,0.1-0.8-0.1-0.9-0.5l-1.1-3.6c-0.6-2-2.7-3.1-4.7-2.5l-0.7,0.2l0.9,2.9l0.7-0.2
				c0.4-0.1,0.8,0.1,0.9,0.5l1.1,3.6c0.2,0.8,0.7,1.5,1.4,1.9c-0.3,0.7-0.3,1.6-0.1,2.4l1.1,3.6c0.1,0.4-0.1,0.8-0.5,0.9l-0.7,0.2
				l0.9,2.9l0.7-0.2c2-0.6,3.1-2.7,2.5-4.7l-1.1-3.6c-0.1-0.4,0.1-0.8,0.5-0.9l0.7-0.2l-0.9-2.9L121.6,159.1z"/>
			<path class="st7" d="M106.6,158.8l1.1,3.6c0.1,0.4-0.1,0.8-0.5,0.9l-0.7,0.2l0.9,2.9l0.7-0.2c0.4-0.1,0.8,0.1,0.9,0.5l1.1,3.6
				c0.6,2,2.7,3.1,4.7,2.5l0.7-0.2l-0.9-2.9l-0.7,0.2c-0.4,0.1-0.8-0.1-0.9-0.5l-1.1-3.6c-0.2-0.8-0.7-1.5-1.4-1.9
				c0.3-0.7,0.3-1.6,0.1-2.4l-1.1-3.6c-0.1-0.4,0.1-0.8,0.5-0.9l0.7-0.2l-0.9-2.9l-0.7,0.2C107.2,154.8,106.1,156.9,106.6,158.8z"/>
			<path class="st7" d="M134.5,156.3c0.8,2.6-0.7,5.4-3.3,6.2l-0.6,0.2c-0.1-3.1-0.6-6.9-1.5-11.3l3.6-1.1L134.5,156.3z
				 M110.4,178.1c-1.5-1.1-6.3-5.2-10.8-16.2c-0.6-1.4-1.8-2.5-2.9-3.6c-0.7-0.7-1.5-1.4-2-2.1l9.9-3l13.6-4.1l6.7-2
				c4.4,15.6,2.3,24,1.5,26.2L110.4,178.1z M109.3,184.7l22.3-6.7l-0.9-2.9l-22.3,6.7L109.3,184.7z M136,179.8
				c0.8-0.2,1.6,0.2,1.9,1l1.3,4.3l-32.3,9.7l-1.3-4.3c-0.2-0.8,0.2-1.6,1-1.9l0.7-0.2l28-8.4L136,179.8z M106.1,148
				c-0.2-0.8,0.2-1.6,1-1.9l5-1.5c0.8-0.2,1.6,0.2,1.9,1l0.4,1.4l-7.9,2.4L106.1,148z M128.3,148.4c-0.3-1.2-0.6-2.4-1-3.6l-0.4-1.4
				l-9.5,2.9l-0.4-1.4c-0.7-2.4-3.2-3.7-5.6-3l-5,1.5c-2.4,0.7-3.7,3.2-3,5.6l0.4,1.4l-13.1,3.9l0.4,1.4c0.6,2,2.2,3.5,3.6,4.8
				c1,0.9,1.9,1.8,2.2,2.5c3.7,9.1,7.7,13.9,10.2,16.2c-1.2,0.7-1.8,2.1-1.4,3.5l0.9,2.9l-0.7,0.2c-2.4,0.7-3.7,3.2-3,5.6l2.2,7.2
				l38.1-11.4L141,180c-0.7-2.4-3.2-3.7-5.6-3l-0.7,0.2l-0.9-2.9c-0.5-1.6-2.2-2.5-3.7-2H130c0.4-1.5,0.7-3.7,0.8-6.5l1.4-0.4
				c4.2-1.3,6.6-5.7,5.3-9.9l-2.7-8.9L128.3,148.4z"/>
			<path class="st8" d="M609.1,53.9l-2.7-1.3c4.4-9.4,15.3-13,25-8.5s13.9,15.2,9.5,24.6l-6.2,13.4l-2.7-1.3l6.2-13.4
				c3.7-7.9,0.1-16.8-8.1-20.7C621.9,43,612.8,46,609.1,53.9z"/>
			<path class="st8" d="M640.1,55.2c-0.8,0.3-1.6-0.1-1.9-0.9c-0.3-0.8,0.1-1.6,0.9-1.9l9.3-3.4c0.8-0.3,1.6,0.1,1.9,0.9
				c0.3,0.8-0.1,1.6-0.9,1.9L640.1,55.2z"/>
			<path class="st8" d="M620.2,43.6c0.3,0.8-0.1,1.6-0.9,1.9c-0.8,0.3-1.6-0.1-1.9-0.9l-3.4-9.3c-0.3-0.8,0.1-1.6,0.9-1.9
				c0.8-0.3,1.6,0.1,1.9,0.9L620.2,43.6z"/>
			<path class="st9" d="M599.9,76.2c5.9,4.5,14.2,3.4,18.7-2.5s3.4-14.2-2.5-18.7s-14.2-3.4-18.7,2.5
				C593,63.3,594.1,71.7,599.9,76.2z M614.3,57.4c4.5,3.5,5.4,10,1.9,14.5s-10,5.4-14.5,1.9s-5.4-10-1.9-14.5S609.8,53.9,614.3,57.4
				z"/>
			<path class="st8" d="M621.9,78.1l-5.4-4.1l1.8-2.4l3,2.3l1.6-2.1l14.7,11.3l-6,7.8l-12.5-9.6l1.8-2.4l10.2,7.8l2.3-3l-9.9-7.6
				L621.9,78.1z"/>
			<path class="st8" d="M604.1,63.3l-2.4-1.8c2.8-3.7,8.1-4.4,11.8-1.6l-1.8,2.4C609.3,60.4,605.9,60.9,604.1,63.3z"/>
			<path class="st9" d="M632.2,60.4c1.1,0.5,2.5,0,3-1.1s0-2.5-1.1-3s-2.5,0-3,1.1C630.6,58.5,631,59.9,632.2,60.4z"/>
			<path class="st9" d="M618.4,54c1.1,0.5,2.5,0,3-1.1s0-2.5-1.1-3s-2.5,0-3,1.1C616.8,52.1,617.3,53.4,618.4,54z"/>
			<path class="st10" d="M433.9,25.6l-16,98.5"/>
			<path class="st3" d="M210,50.5l68,68"/>
			<path class="st3" d="M600.5,85.5l-38.5,32"/>
			<path class="st3" d="M149,43.5l-122,40"/>
			<path class="st3" d="M196,227.5l-41-34"/>
			<path class="st3" d="M87,179.5l-62,55"/>
			<circle class="st11" cx="11" cy="88" r="8"/>
			<circle class="st11" cx="437" cy="11" r="8"/>
			<circle class="st11" cx="448" cy="313" r="8"/>
			<circle class="st11" cx="11" cy="247" r="8"/>
		</g>
	</g>
</g>
<g id="logo">

		<linearGradient id="SVGID_00000174589021403235869570000005863789776763250604_" gradientUnits="userSpaceOnUse" x1="327.4279" y1="127.3776" x2="429.6533" y2="197.6873">
		<stop  offset="8.420075e-02" style="stop-color:#006181"/>
		<stop  offset="0.8541" style="stop-color:#006D90"/>
		<stop  offset="0.8757" style="stop-color:#006D91"/>
	</linearGradient>
	<path style="fill:url(#SVGID_00000174589021403235869570000005863789776763250604_);" d="M451.9,83.4c1.4,2,1.4,4.8,0,6.8
		L435,114.9l-11.5,16.9L412,148.7l-44.9,65.9L342.3,251c-1.1,1.6-2.8,2.5-4.7,2.5h-32.5c-4.6,0-7.3-5.4-4.7-9.3l20.2-29.6l68.1-100
		l11.5-16.9l11.5-16.9l14.5-21.3c2.3-3.3,7.1-3.3,9.3,0l6.3,9.2L451.9,83.4z"/>
	<path class="st13" d="M518.4,253.5h-158c-4.6,0-7.3-5.4-4.7-9.3l18.5-27.1c1.1-1.6,2.8-2.5,4.7-2.5h66.9c4.6,0,7.3-5.4,4.7-9.3
		L440,190l-11.9-17.4v0l-9.4-13.8c-1.4-2-1.4-4.8,0-6.8l9.2-13.5l11.5-16.9l14.5-21.3c2.3-3.3,7.1-3.3,9.3,0l7.1,10.4l9.6,14
		c1.4,2,1.4,4.8,0,6.8l-14.5,21.3c-1.4,2-1.4,4.8,0,6.8l37.5,55.1l20.2,29.6C525.8,248.1,523.1,253.5,518.4,253.5z"/>
</g>
</svg>
