<?xml version="1.0" encoding="utf-8"?>
<!-- Generator: Adobe Illustrator 27.7.0, SVG Export Plug-In . SVG Version: 6.00 Build 0)  -->
<svg version="1.1" id="Capa_1" xmlns="http://www.w3.org/2000/svg" xmlns:xlink="http://www.w3.org/1999/xlink" x="0px" y="0px"
	 viewBox="0 0 580 430" style="enable-background:new 0 0 580 430;" xml:space="preserve">
<style type="text/css">
	.st0{clip-path:url(#SVGID_00000071551361685707553070000003953924467496389508_);}
	.st1{fill:#183737;}
	.st2{fill:none;stroke:#FFFFFF;stroke-width:3.7638;stroke-linecap:square;stroke-miterlimit:10;}
	.st3{fill:none;stroke:#FFFFFF;stroke-width:3.7638;stroke-miterlimit:10;}
	.st4{fill:url(#SVGID_00000106831315220001623790000017320240231362632346_);}
	.st5{fill:#FFFFFF;fill-opacity:0.3;}
	.st6{fill:none;stroke:#FFFFFF;stroke-width:2.4;stroke-linecap:round;stroke-linejoin:round;}
	.st7{fill:none;stroke:#FFFFFF;stroke-width:2.4;stroke-linecap:round;stroke-opacity:0.5;}
	.st8{fill-rule:evenodd;clip-rule:evenodd;fill:#FFFFFF;stroke:#FFFFFF;stroke-width:2.4;stroke-linejoin:round;}
	.st9{fill:url(#SVGID_00000173160658222946853020000007225175756612990103_);}
	.st10{fill:none;stroke:#FFFFFF;stroke-width:2.4;}
	.st11{fill:#FFFFFF;fill-opacity:0.12;stroke:#FFFFFF;stroke-width:2.4;}
	.st12{fill:#FFFFFF;stroke:#FFFFFF;stroke-width:2.4;}
	.st13{fill:none;stroke:#FFFFFF;stroke-width:2.4;stroke-opacity:0.5;}
	.st14{fill:url(#SVGID_00000006693630799051668160000008644447604652719493_);}
	.st15{fill:none;stroke:#FFFFFF;stroke-width:2.8;stroke-opacity:0.5;}
	.st16{fill:#FFFFFF;fill-opacity:0.12;}
	.st17{fill:none;stroke:#FFFFFF;stroke-width:2.8;stroke-linecap:round;stroke-linejoin:round;}
	.st18{fill:#FFFFFF;stroke:#FFFFFF;stroke-width:2.8;stroke-linejoin:round;}
	.st19{fill:none;stroke:#FFFFFF;stroke-width:2.8;}
	.st20{fill:url(#SVGID_00000096034751360291992630000003692714681872688535_);}
	.st21{fill:#FFFFFF;}
	.st22{fill:url(#SVGID_00000047775948549263898840000017795809057804312479_);}
	.st23{fill:none;stroke:#FFFFFF;stroke-width:2.8;stroke-linecap:round;}
	.st24{fill:url(#SVGID_00000037653063590539087710000011084855310112355228_);}
	.st25{fill:none;stroke:#FFFFFF;stroke-width:2.8;stroke-opacity:0.3;}
	.st26{fill:#FFFFFF;fill-opacity:0.5;}
	.st27{fill:none;stroke:#FFFFFF;stroke-width:2.8;stroke-linecap:square;stroke-opacity:0.5;}
	.st28{fill-rule:evenodd;clip-rule:evenodd;fill:#FFFFFF;}
	.st29{fill-rule:evenodd;clip-rule:evenodd;fill:#FFFFFF;filter:url(#Adobe_OpacityMaskFilter);}
	.st30{mask:url(#path-56-inside-1_2305_5332_00000173840457858411831430000010534971068323518908_);fill:#FFFFFF;}
	.st31{fill:url(#_x33__00000021092984025052467100000017390645568263136163_);}
	.st32{fill:url(#SVGID_00000131355904613113752470000016866301451644864666_);}
</style>
<g>
	<defs>
		<rect id="SVGID_1_" width="580" height="429.5"/>
	</defs>
	<clipPath id="SVGID_00000045589014194765952450000006127285048766835610_">
		<use xlink:href="#SVGID_1_"  style="overflow:visible;"/>
	</clipPath>
	<g style="clip-path:url(#SVGID_00000045589014194765952450000006127285048766835610_);">
		<rect x="231.7" y="148.9" class="st1" width="126.1" height="126.1"/>
		<path class="st2" d="M293.7,241.7c16.5,0,29.8-13.3,29.8-29.8c0-16.5-13.3-29.8-29.8-29.8c-16.5,0-29.8,13.3-29.8,29.8
			C263.9,228.4,277.2,241.7,293.7,241.7z"/>
		<path class="st3" d="M301.7,238.3c4.3-12.4,12.6-37.6,12.6-41.1c0-8.9-7.8-10.3-10.8-6.6c-6.6,8.1,7.9,17.8,4.6,28.9"/>
		<path class="st3" d="M301.7,239.4l-12.2-40"/>
		<path class="st3" d="M285.5,239.5c1.4-3.9,6.4-17.8,8.8-25.3"/>
		<path class="st3" d="M283.3,201h8.4"/>
		<path class="st3" d="M285.5,237.7l-11.1-38.3"/>
		<path class="st3" d="M266.5,201h10.1"/>
		<g>
			
				<linearGradient id="SVGID_00000071530589963604473330000007779237190837729725_" gradientUnits="userSpaceOnUse" x1="204.375" y1="98.0445" x2="405.74" y2="98.0445">
				<stop  offset="7.493364e-02" style="stop-color:#1DB1C2"/>
				<stop  offset="0.3427" style="stop-color:#2DB6C6"/>
				<stop  offset="0.7047" style="stop-color:#48BECC"/>
			</linearGradient>
			
				<rect x="204.4" y="35" style="fill:url(#SVGID_00000071530589963604473330000007779237190837729725_);" width="201.4" height="126.1"/>
			<path class="st5" d="M299,87.8l7.8,7.8c0.6,0.6,1,1.5,1,2.4h-10c-0.7,0-1.2-0.5-1.2-1.2v-10C297.5,86.8,298.4,87.2,299,87.8z"/>
			<path class="st6" d="M296.6,86.8L296.6,86.8c0.9,0,1.8,0.4,2.4,1l7.8,7.8c0.6,0.6,1,1.5,1,2.4l0,0 M296.6,86.8h-13.2
				c-2,0-3.6,1.6-3.6,3.6v29.2c0,2,1.6,3.6,3.6,3.6h20.2 M296.6,86.8v10c0,0.7,0.5,1.2,1.2,1.2h10 M307.8,98v2.8"/>
			<path class="st5" d="M310.2,73.8l7.8,7.8c0.6,0.6,1,1.5,1,2.4h-10c-0.7,0-1.2-0.5-1.2-1.2v-10C308.7,72.8,309.6,73.2,310.2,73.8z
				"/>
			<path class="st6" d="M319,93.8V84 M307.8,72.8L307.8,72.8c0.9,0,1.8,0.4,2.4,1l7.8,7.8c0.6,0.6,1,1.5,1,2.4l0,0 M307.8,72.8
				h-13.2c-2,0-3.6,1.6-3.6,3.6v10.4 M307.8,72.8v10c0,0.7,0.5,1.2,1.2,1.2h10"/>
			<path class="st7" d="M285.4,105h11.2"/>
			<path class="st7" d="M285.4,110.6h8.4"/>
			<path class="st7" d="M285.4,116.2h11.2"/>
			<path class="st8" d="M316.2,118.3l-8.2,4.3l1.6-9.2l-6.7-6.5l9.2-1.3l4.1-8.3l4.1,8.3l9.2,1.3l-6.7,6.5l1.6,9.2L316.2,118.3z"/>
		</g>
		<g>
			
				<linearGradient id="SVGID_00000076568734581209924650000000607510744635444871_" gradientUnits="userSpaceOnUse" x1="343.633" y1="187.4355" x2="544.998" y2="187.4355">
				<stop  offset="7.493364e-02" style="stop-color:#1DB1C2"/>
				<stop  offset="0.3427" style="stop-color:#2DB6C6"/>
				<stop  offset="0.7047" style="stop-color:#48BECC"/>
			</linearGradient>
			
				<rect x="343.6" y="124.4" style="fill:url(#SVGID_00000076568734581209924650000000607510744635444871_);" width="201.4" height="126.1"/>
			<path class="st10" d="M421.6,196c0,2,1.6,3.6,3.6,3.6h37.6c2,0,3.6-1.6,3.6-3.6v-30.6c0-2-1.6-3.6-3.6-3.6h-37.6
				c-2,0-3.6,1.6-3.6,3.6V196z"/>
			<path class="st10" d="M421.6,194l8.6-7.9c1.4-1.3,3.7-1.3,5,0.1l2.3,2.4c1.5,1.5,3.9,1.5,5.3-0.1l7.2-8.2c1.4-1.6,4-1.6,5.4,0
				l11,12.4"/>
			<circle class="st11" cx="434.2" cy="173.7" r="4.2"/>
			<circle class="st12" cx="430.7" cy="208.7" r="3.5"/>
			<circle class="st13" cx="444.7" cy="208.7" r="3.5"/>
			<circle class="st13" cx="458.7" cy="208.7" r="3.5"/>
		</g>
		<g>
			
				<linearGradient id="SVGID_00000178886548153996707670000007252874982011747207_" gradientUnits="userSpaceOnUse" x1="35" y1="228.8375" x2="236.365" y2="228.8375">
				<stop  offset="7.493364e-02" style="stop-color:#1DB1C2"/>
				<stop  offset="0.3427" style="stop-color:#2DB6C6"/>
				<stop  offset="0.7047" style="stop-color:#48BECC"/>
			</linearGradient>
			
				<rect x="35" y="165.8" style="fill:url(#SVGID_00000178886548153996707670000007252874982011747207_);" width="201.4" height="126.1"/>
			<path class="st15" d="M116.4,203.8h39.2c3.1,0,5.6,2.5,5.6,5.6v39.2c0,3.1-2.5,5.6-5.6,5.6h-39.2c-3.1,0-5.6-2.5-5.6-5.6v-39.2
				C110.8,206.3,113.3,203.8,116.4,203.8z"/>
			<path class="st16" d="M117.8,212.2h19.6v11.2l-7,2.8l-4.2,5.6h-8.4V212.2z"/>
			<path class="st17" d="M137.4,224.8v-9.1c0-2.3-1.9-4.2-4.2-4.2h-12.6c-2.3,0-4.2,1.9-4.2,4.2v12.6c0,2.3,1.9,4.2,4.2,4.2h4.5"/>
			<path class="st18" d="M144.6,219.2l-8.8,15.4c-0.5,0.9,0.1,2.1,1.2,2.1h17.6c1.1,0,1.7-1.2,1.2-2.1l-8.8-15.4
				C146.5,218.3,145.1,218.3,144.6,219.2z"/>
			<path class="st19" d="M140.6,225.8c-2.2-1-4.7-1.2-7-0.7c-2.4,0.5-4.5,1.8-6.1,3.6c-1.6,1.8-2.5,4.1-2.7,6.5
				c-0.2,2.4,0.5,4.8,1.8,6.8c1.3,2,3.2,3.6,5.5,4.4c2.3,0.8,4.7,0.9,7.1,0.2c2.3-0.7,4.4-2.1,5.8-4c1.3-1.7,2.1-3.8,2.2-6"/>
		</g>
		<g>
			
				<linearGradient id="SVGID_00000121269198465829098100000003958615960996959398_" gradientUnits="userSpaceOnUse" x1="323.047" y1="305.3515" x2="524.412" y2="305.3515">
				<stop  offset="7.493364e-02" style="stop-color:#1DB1C2"/>
				<stop  offset="0.3427" style="stop-color:#2DB6C6"/>
				<stop  offset="0.7047" style="stop-color:#48BECC"/>
			</linearGradient>
			
				<rect x="323" y="242.3" style="fill:url(#SVGID_00000121269198465829098100000003958615960996959398_);" width="201.4" height="126.1"/>
			<path class="st15" d="M449.2,313.4h-16.8 M432.4,313.4h-16.8 M432.4,313.4v16.8 M432.4,313.4v-16.8 M415.6,313.4h-16.8
				 M415.6,313.4v16.8 M415.6,313.4v-16.8 M415.6,296.6v-16.8 M415.6,296.6h16.8 M415.6,296.6h-16.8 M432.4,296.6v-16.8
				 M432.4,296.6h16.8 M403,330.2h42c2.3,0,4.2-1.9,4.2-4.2v-42c0-2.3-1.9-4.2-4.2-4.2h-42c-2.3,0-4.2,1.9-4.2,4.2v42
				C398.8,328.3,400.7,330.2,403,330.2z"/>
			<path class="st21" d="M421.2,299.4h22.4c1.5,0,2.8,1.3,2.8,2.8v22.4c0,1.5-1.3,2.8-2.8,2.8h-22.4c-1.5,0-2.8-1.3-2.8-2.8v-22.4
				C418.4,300.7,419.7,299.4,421.2,299.4z"/>
		</g>
		<g>
			
				<linearGradient id="SVGID_00000104694480996080631610000016283563843267312550_" gradientUnits="userSpaceOnUse" x1="176.141" y1="331.4015" x2="377.506" y2="331.4015">
				<stop  offset="7.493364e-02" style="stop-color:#1DB1C2"/>
				<stop  offset="0.3427" style="stop-color:#2DB6C6"/>
				<stop  offset="0.7047" style="stop-color:#48BECC"/>
			</linearGradient>
			
				<rect x="176.1" y="268.4" style="fill:url(#SVGID_00000104694480996080631610000016283563843267312550_);" width="201.4" height="126.1"/>
			<path class="st16" d="M256,307.2h30.8v22.4H256V307.2z"/>
			<path class="st21" d="M260.1,322.8l-5.5,6.8h33.6v0c0-0.8-0.2-1.6-0.7-2.3l-6.1-9.1c-1.7-2.5-5.4-2.5-7,0l-3.1,4.7
				c-1.3,2-4.3,2.1-5.7,0.1C264.3,321.1,261.6,321,260.1,322.8z"/>
			<path class="st19" d="M258.8,305.8H284c2.3,0,4.2,1.9,4.2,4.2v30.8c0,2.3-1.9,4.2-4.2,4.2h-25.2c-2.3,0-4.2-1.9-4.2-4.2V310
				C254.6,307.7,256.5,305.8,258.8,305.8z"/>
			<path class="st19" d="M291,311.4L291,311.4c1.5,0,2.8,1.3,2.8,2.8v32.2c0,2.3-1.9,4.2-4.2,4.2H263c-1.5,0-2.8-1.3-2.8-2.8l0,0"/>
			<path class="st19" d="M296.6,317L296.6,317c1.5,0,2.8,1.3,2.8,2.8V352c0,2.3-1.9,4.2-4.2,4.2h-26.6c-1.5,0-2.8-1.3-2.8-2.8l0,0"
				/>
			<circle class="st21" cx="264.4" cy="314.2" r="2.8"/>
			<path class="st23" d="M260.2,334.5h11.2"/>
			<path class="st23" d="M260.2,338.7h8.4"/>
		</g>
		<g>
			
				<linearGradient id="SVGID_00000000189184361253293670000010472024541982443709_" gradientUnits="userSpaceOnUse" x1="51" y1="124.3922" x2="252.365" y2="124.3922">
				<stop  offset="7.493364e-02" style="stop-color:#1DB1C2"/>
				<stop  offset="0.3427" style="stop-color:#2DB6C6"/>
				<stop  offset="0.7047" style="stop-color:#48BECC"/>
			</linearGradient>
			
				<rect x="51" y="61.3" style="fill:url(#SVGID_00000000189184361253293670000010472024541982443709_);" width="201.4" height="126.1"/>
			<path class="st19" d="M131,98.8h42c2.3,0,4.2,1.9,4.2,4.2v42c0,2.3-1.9,4.2-4.2,4.2h-42c-2.3,0-4.2-1.9-4.2-4.2v-42
				C126.8,100.7,128.7,98.8,131,98.8z"/>
			<path class="st25" d="M128.2,105.8h4.2"/>
			<path class="st25" d="M135.2,105.8h4.2"/>
			<path class="st25" d="M142.2,105.8h4.2"/>
			<path class="st25" d="M149.2,105.8h4.2"/>
			<path class="st25" d="M156.2,105.8h4.2"/>
			<path class="st25" d="M163.2,105.8h4.2"/>
			<path class="st25" d="M170.2,105.8h4.2"/>
			<path class="st26" d="M153.4,122.6h9.8c0.8,0,1.4,0.6,1.4,1.4v11.2c0,0.8-0.6,1.4-1.4,1.4h-9.8c-0.8,0-1.4-0.6-1.4-1.4V124
				C152,123.2,152.6,122.6,153.4,122.6z"/>
			<path class="st26" d="M139.4,125.4h8.4c0.8,0,1.4,0.6,1.4,1.4V138c0,0.8-0.6,1.4-1.4,1.4h-8.4c-0.8,0-1.4-0.6-1.4-1.4v-11.2
				C138,126,138.6,125.4,139.4,125.4z"/>
			<path class="st27" d="M166,140.8h-12.3c-1.1,0-2.2,0.4-3,1.2l-0.3,0.3c-0.8,0.8-1.9,1.2-3,1.2h-1.1 M135.2,143.6h11.2
				 M146.4,143.6v2.8"/>
			<path class="st19" d="M132.4,149.2v-16.8c0-7.7,6.3-14,14-14h22.4 M177.2,118.4h-8.4 M168.8,118.4v30.8"/>
			<path class="st28" d="M158.3,129.6c1.2,0,8.4-10.9,8.4-18.1c0-4.7-3.8-8.5-8.4-8.5c-4.6,0-8.4,3.8-8.4,8.5
				C149.9,118.7,157.1,129.6,158.3,129.6z M158.3,114.5c1.7,0,3-1.4,3-3c0-1.7-1.3-3-3-3c-1.7,0-3,1.4-3,3
				C155.3,113.1,156.6,114.5,158.3,114.5z"/>
			<defs>
				<filter id="Adobe_OpacityMaskFilter" filterUnits="userSpaceOnUse" x="147.1" y="100.2" width="22.4" height="32.2">
					<feColorMatrix  type="matrix" values="1 0 0 0 0  0 1 0 0 0  0 0 1 0 0  0 0 0 1 0"/>
				</filter>
			</defs>
			
				<mask maskUnits="userSpaceOnUse" x="147.1" y="100.2" width="22.4" height="32.2" id="path-56-inside-1_2305_5332_00000173840457858411831430000010534971068323518908_">
				<path class="st29" d="M158.3,129.6c1.2,0,8.4-10.9,8.4-18.1c0-4.7-3.8-8.5-8.4-8.5c-4.6,0-8.4,3.8-8.4,8.5
					C149.9,118.7,157.1,129.6,158.3,129.6z M158.3,114.5c1.7,0,3-1.4,3-3c0-1.7-1.3-3-3-3c-1.7,0-3,1.4-3,3
					C155.3,113.1,156.6,114.5,158.3,114.5z"/>
			</mask>
			<path class="st30" d="M163.9,111.5c0,2.9-1.5,6.9-3.4,10.5c-0.9,1.7-1.9,3.2-2.6,4.2c-0.4,0.5-0.7,0.8-0.8,1
				c-0.1,0.1-0.1,0.1,0,0c0,0,0.2-0.1,0.3-0.2c0.2-0.1,0.5-0.2,1-0.2v5.6c1,0,1.7-0.5,1.9-0.6c0.3-0.2,0.6-0.5,0.8-0.7
				c0.4-0.4,0.9-1,1.4-1.6c0.9-1.3,2-3,3.1-4.9c2-3.7,4.1-8.8,4.1-13.1H163.9z M158.3,105.8c3.1,0,5.6,2.5,5.6,5.7h5.6
				c0-6.2-5-11.3-11.2-11.3V105.8z M152.7,111.5c0-3.1,2.5-5.7,5.6-5.7v-5.6c-6.2,0-11.2,5.1-11.2,11.3H152.7z M158.3,126.8
				c0.5,0,0.8,0.1,1,0.2c0.2,0.1,0.3,0.1,0.3,0.2c0.1,0.1,0.1,0.1,0,0c-0.2-0.2-0.5-0.5-0.8-1c-0.8-1-1.7-2.5-2.6-4.2
				c-1.9-3.5-3.4-7.6-3.4-10.5h-5.6c0,4.4,2.1,9.4,4.1,13.1c1,1.9,2.1,3.6,3.1,4.9c0.5,0.6,0.9,1.2,1.4,1.6c0.2,0.2,0.5,0.5,0.8,0.7
				c0.2,0.1,0.9,0.6,1.9,0.6V126.8z M158.5,111.5c0,0.1-0.1,0.2-0.2,0.2v5.6c3.2,0,5.8-2.6,5.8-5.8H158.5z M158.3,111.2
				c0.1,0,0.2,0.1,0.2,0.2h5.6c0-3.2-2.6-5.8-5.8-5.8V111.2z M158.1,111.5c0-0.1,0.1-0.2,0.2-0.2v-5.6c-3.2,0-5.8,2.6-5.8,5.8H158.1
				z M158.3,111.7c-0.1,0-0.2-0.1-0.2-0.2h-5.6c0,3.2,2.6,5.8,5.8,5.8V111.7z"/>
		</g>
	</g>
</g>
<linearGradient id="_x33__00000121988068692872818260000012550503016337609619_" gradientUnits="userSpaceOnUse" x1="-981.9226" y1="-338.6339" x2="-729.9657" y2="-168.897">
	<stop  offset="0" style="stop-color:#006181"/>
	<stop  offset="0.5922" style="stop-color:#006D90"/>
	<stop  offset="0.6089" style="stop-color:#006D91"/>
</linearGradient>
<path id="_x33_" style="fill:url(#_x33__00000121988068692872818260000012550503016337609619_);" d="M-680.8-436.6
	c3.3,4.7,3.3,11,0,15.7l-40.2,57.1l-27.5,39l-27.5,39.1l-107.1,152l-59.2,84.1c-2.6,3.6-6.7,5.8-11.1,5.8h-77.5
	c-11.1,0-17.5-12.5-11.1-21.5l48.2-68.4l162.5-230.8l27.5-39.1l27.5-39l34.6-49.1c5.4-7.7,16.9-7.7,22.3,0l15,21.2L-680.8-436.6z"/>
<linearGradient id="SVGID_00000173162843602321340850000016417785495686108073_" gradientUnits="userSpaceOnUse" x1="-796.8064" y1="-232.6864" x2="-518.4691" y2="-41.2486">
	<stop  offset="7.493364e-02" style="stop-color:#1DB1C2"/>
	<stop  offset="0.3427" style="stop-color:#2DB6C6"/>
	<stop  offset="0.7047" style="stop-color:#48BECC"/>
</linearGradient>
<path style="fill:url(#SVGID_00000173162843602321340850000016417785495686108073_);" d="M-523.9-43.8h-376.9
	c-11.1,0-17.5-12.5-11.1-21.5l44.1-62.6c2.6-3.6,6.7-5.8,11.1-5.8h159.5c11.1,0,17.5-12.5,11.1-21.5l-24.9-35.4l-28.4-40.2v0
	l-22.5-32c-3.3-4.7-3.3-11,0-15.7l22-31.2l27.5-39l34.6-49.1c5.4-7.7,16.9-7.7,22.3,0l16.9,24l22.8,32.4c3.3,4.7,3.3,11,0,15.7
	l-34.7,49.3c-3.3,4.7-3.3,11,0,15.7l89.5,127.1l48.2,68.4C-506.4-56.2-512.8-43.8-523.9-43.8z"/>
<path class="st1" d="M-680.4,444.6h-376.9c-11.1,0-17.5-12.5-11.1-21.5l44.1-62.6c2.6-3.6,6.7-5.8,11.1-5.8h159.5
	c11.1,0,17.5-12.5,11.1-21.5l-24.9-35.4l-28.4-40.2v0l-22.5-32c-3.3-4.7-3.3-11,0-15.7l22-31.2l27.5-39l34.6-49.1
	c5.4-7.7,16.9-7.7,22.3,0l16.9,24l22.8,32.4c3.3,4.7,3.3,11,0,15.7l-34.7,49.3c-3.3,4.7-3.3,11,0,15.7l89.5,127.1l48.2,68.4
	C-662.9,432.1-669.4,444.6-680.4,444.6z"/>
</svg>
