<?xml version="1.0" encoding="utf-8"?>
<!-- Generator: Adobe Illustrator 27.7.0, SVG Export Plug-In . SVG Version: 6.00 Build 0)  -->
<svg version="1.1" id="Capa_1" xmlns="http://www.w3.org/2000/svg" xmlns:xlink="http://www.w3.org/1999/xlink" x="0px" y="0px"
	 viewBox="0 0 580 430" style="enable-background:new 0 0 580 430;" xml:space="preserve">
<style type="text/css">
	.st0{clip-path:url(#SVGID_00000053508317372894893590000008949349651818115214_);}
	.st1{fill:#183737;}
	.st2{fill:#FFFFFF;}
	.st3{fill:url(#SVGID_00000150097504737671440940000013305405022427976619_);}
	.st4{fill:url(#SVGID_00000161600388765075962370000013085182884145071257_);}
	.st5{fill:url(#SVGID_00000004547912020758103170000007592329403118276524_);}
	.st6{fill:url(#SVGID_00000039827351452500599160000000746655456147351209_);}
	.st7{fill:url(#SVGID_00000018230783235437889740000015112363131446165686_);}
	.st8{fill:url(#SVGID_00000084511735300544153400000009860011483557804929_);}
</style>
<g>
	<g>
		<defs>
			<rect id="SVGID_1_" width="580" height="429.5"/>
		</defs>
		<clipPath id="SVGID_00000075844312113621514710000015987134824258447549_">
			<use xlink:href="#SVGID_1_"  style="overflow:visible;"/>
		</clipPath>
		<g style="clip-path:url(#SVGID_00000075844312113621514710000015987134824258447549_);">
			<rect x="231.7" y="148.9" class="st1" width="126.1" height="126.1"/>
			<g id="logo">
				<path id="_x33__00000150092321917854305700000013270849152254938510_" class="st2" d="M301.7,189.6c0.4,0.6,0.4,1.3,0,1.9
					l-4.9,6.9l-3.3,4.7l-3.3,4.7l-12.9,18.4l-7.2,10.2c-0.3,0.4-0.8,0.7-1.3,0.7h-9.4c-1.3,0-2.1-1.5-1.3-2.6l5.8-8.3l19.6-27.9
					l3.3-4.7l3.3-4.7l4.2-5.9c0.7-0.9,2-0.9,2.7,0l1.8,2.6L301.7,189.6z"/>
				<path class="st2" d="M320.6,237.1h-45.6c-1.3,0-2.1-1.5-1.3-2.6l5.3-7.6c0.3-0.4,0.8-0.7,1.3-0.7h19.3c1.3,0,2.1-1.5,1.3-2.6
					l-3-4.3l-3.4-4.9l0,0l-2.7-3.9c-0.4-0.6-0.4-1.3,0-1.9l2.7-3.8l3.3-4.7l4.2-5.9c0.7-0.9,2-0.9,2.7,0l2,2.9l2.8,3.9
					c0.4,0.6,0.4,1.3,0,1.9l-4.2,6c-0.4,0.6-0.4,1.3,0,1.9l10.8,15.4l5.8,8.3C322.8,235.6,322,237.1,320.6,237.1z"/>
			</g>
			<g>

					<linearGradient id="SVGID_00000119808506942508703970000001802677657218577049_" gradientUnits="userSpaceOnUse" x1="204.4" y1="333.95" x2="405.8" y2="333.95" gradientTransform="matrix(1 0 0 -1 0 432)">
					<stop  offset="7.493364e-02" style="stop-color:#1DB1C2"/>
					<stop  offset="0.3427" style="stop-color:#2DB6C6"/>
					<stop  offset="0.7047" style="stop-color:#48BECC"/>
				</linearGradient>

					<rect x="204.4" y="35" style="fill:url(#SVGID_00000119808506942508703970000001802677657218577049_);" width="201.4" height="126.1"/>
				<g id="SAR">
					<g>
						<path class="st2" d="M268.3,92.5c0-0.2,0.1-0.5,0.2-0.7c0.7-1.4,2.6-2.1,5.8-2.1h12.7v3.1l-11,0c-0.9,0-1.4,0.3-1.4,0.7v1
							c0,0.1,0,0.2,0,0.2c0.1,0.4,0.7,0.6,1.6,0.6c0.1,0,0.2,0,0.4,0h4.5c1.3,0,2.5,0.2,3.5,0.5c1.5,0.5,2.3,1.3,2.3,2.3v2.9
							c0,1.2-0.8,2-2.4,2.5c-1.1,0.3-2.4,0.5-3.9,0.5h-12.3V101h10.9c1-0.2,1.5-0.4,1.5-0.8v-1c0-0.4-0.4-0.6-1.3-0.7h-5.2
							c-2.1,0-3.7-0.4-4.9-1.3c-0.6-0.5-1-1-1-1.6V92.5z"/>
						<path class="st2" d="M286.6,104.2l8-12.7c0.8-1.3,2.4-1.9,4.9-1.9c2.4,0,4.1,0.6,4.9,1.9l8,12.7h-6.5l-2-3.1h-8.8l-2,3.1
							H286.6z M297,98.1h5.1l-2.9-4.7L297,98.1z"/>
						<path class="st2" d="M312.5,89.7h14.6c4,0,6,1,6,2.9v2.9c0,0.9-0.6,1.7-1.8,2.2c-0.8,0.4-1.8,0.6-3,0.7c-0.5,0-0.8,0-1.1,0
							l-1,0l7.1,5.8H326l-6.6-5.4c-0.4-0.3-0.6-0.7-0.5-1.1c0.2-1.2,1.5-1.9,3.8-1.9h2.5c1.1,0,1.7-0.3,1.7-0.8v-1.3
							c0-0.5-0.5-0.8-1.5-0.8c-0.1,0-0.2,0-0.4,0h-6.2v11.4h-6.3V89.7z"/>
					</g>
				</g>
			</g>
			<g>

					<linearGradient id="SVGID_00000071523053563234000470000001608057651007257764_" gradientUnits="userSpaceOnUse" x1="343.6" y1="244.55" x2="545" y2="244.55" gradientTransform="matrix(1 0 0 -1 0 432)">
					<stop  offset="7.493364e-02" style="stop-color:#1DB1C2"/>
					<stop  offset="0.3427" style="stop-color:#2DB6C6"/>
					<stop  offset="0.7047" style="stop-color:#48BECC"/>
				</linearGradient>

					<rect x="343.6" y="124.4" style="fill:url(#SVGID_00000071523053563234000470000001608057651007257764_);" width="201.4" height="126.1"/>
				<g id="SAF">
					<g>
						<path class="st2" d="M409.6,190.6c0-0.3,0.1-0.5,0.2-0.8c0.8-1.6,2.9-2.4,6.4-2.4h14v3.4l-12.1,0c-1,0-1.5,0.3-1.5,0.8v1.1
							c0,0.1,0,0.2,0,0.2c0.1,0.4,0.7,0.7,1.7,0.7c0.1,0,0.2,0,0.4,0h5c1.5,0,2.8,0.2,3.9,0.6c1.7,0.5,2.5,1.4,2.5,2.6v3.2
							c0,1.3-0.9,2.2-2.6,2.8c-1.2,0.4-2.6,0.6-4.3,0.6h-13.6V200h12c1.1-0.2,1.6-0.5,1.6-0.9v-1.2c0-0.4-0.5-0.7-1.5-0.8H416
							c-2.3,0-4.1-0.5-5.4-1.4c-0.7-0.5-1.1-1.1-1.1-1.7V190.6z"/>
						<path class="st2" d="M429.8,203.5l8.9-14.1c0.9-1.4,2.7-2.1,5.4-2.1c2.7,0,4.5,0.7,5.4,2.1l8.9,14.1h-7.2L449,200h-9.7
							l-2.2,3.5H429.8z M441.3,196.8h5.7l-3.2-5.2L441.3,196.8z"/>
						<path class="st2" d="M458.3,190.7c0-1.6,1.2-2.7,3.6-3.1c0.7-0.1,2-0.2,3.6-0.2h13.6v3.4h-11.6c-1.4,0-2.1,0.3-2.3,0.8
							c0,0,0,0.1,0,0.2v1.8h14v3.5h-14v6.3h-6.9V190.7z"/>
					</g>
				</g>
			</g>
			<g>

					<linearGradient id="SVGID_00000038380308020164426030000011040188695821778364_" gradientUnits="userSpaceOnUse" x1="35" y1="203.15" x2="236.4" y2="203.15" gradientTransform="matrix(1 0 0 -1 0 432)">
					<stop  offset="7.493364e-02" style="stop-color:#1DB1C2"/>
					<stop  offset="0.3427" style="stop-color:#2DB6C6"/>
					<stop  offset="0.7047" style="stop-color:#48BECC"/>
				</linearGradient>

					<rect x="35" y="165.8" style="fill:url(#SVGID_00000038380308020164426030000011040188695821778364_);" width="201.4" height="126.1"/>
				<g id="SAN">
					<g>
						<path class="st2" d="M93.4,223.2c0-0.3,0.1-0.5,0.2-0.8c0.8-1.5,2.8-2.3,6.1-2.3h13.5v3.3l-11.7,0c-1,0-1.5,0.3-1.5,0.7v1
							c0,0.1,0,0.2,0,0.2c0.1,0.4,0.7,0.6,1.7,0.7c0.1,0,0.2,0,0.4,0h4.8c1.4,0,2.7,0.2,3.8,0.6c1.6,0.5,2.4,1.3,2.4,2.5v3.1
							c0,1.2-0.8,2.1-2.5,2.7c-1.1,0.4-2.5,0.6-4.1,0.6H93.5v-3.3H105c1-0.2,1.5-0.5,1.5-0.9v-1.1c0-0.4-0.5-0.7-1.4-0.7h-5.5
							c-2.2,0-4-0.5-5.2-1.4c-0.7-0.5-1-1.1-1-1.7V223.2z"/>
						<path class="st2" d="M112.9,235.6l8.5-13.6c0.9-1.4,2.6-2.1,5.2-2.1c2.6,0,4.3,0.7,5.2,2.1l8.5,13.6h-7l-2.1-3.3H122l-2.1,3.3
							H112.9z M124,229.1h5.4l-3.1-5L124,229.1z"/>
						<path class="st2" d="M140.4,235.6v-12.4c0-0.9,0.5-1.7,1.6-2.3c1-0.6,2.4-0.9,3.9-0.9c0.7,0,1.4,0.1,2.2,0.2
							c1.8,0.3,3.1,1.1,3.7,2.4l4.7,8.9v-11.3h6.3v12.8c0,0.8-0.5,1.5-1.5,2c-1,0.5-2.3,0.8-3.9,0.9c-3,0.1-4.9-0.8-5.9-2.6
							l-4.7-8.9v11.3H140.4z"/>
					</g>
				</g>
			</g>
			<g>

					<linearGradient id="SVGID_00000011007322095719328380000000250840362317049742_" gradientUnits="userSpaceOnUse" x1="323" y1="126.65" x2="524.4" y2="126.65" gradientTransform="matrix(1 0 0 -1 0 432)">
					<stop  offset="7.493364e-02" style="stop-color:#1DB1C2"/>
					<stop  offset="0.3427" style="stop-color:#2DB6C6"/>
					<stop  offset="0.7047" style="stop-color:#48BECC"/>
				</linearGradient>

					<rect x="323" y="242.3" style="fill:url(#SVGID_00000011007322095719328380000000250840362317049742_);" width="201.4" height="126.1"/>
				<g id="PAC">
					<g>
						<path class="st2" d="M387.8,312v-16.3H404c2.1,0,3.8,0.3,5.1,0.9c1.3,0.6,1.9,1.4,1.9,2.3v4c0,1-0.6,1.8-1.9,2.4
							c-1.1,0.5-2.7,0.8-4.5,0.8h-9.8v5.9H387.8z M394.8,302.6h6.8c1.6,0,2.4-0.3,2.4-0.9v-1.6c-0.1-0.5-0.7-0.8-1.8-0.9h-7.5V302.6
							z"/>
						<path class="st2" d="M412.4,308.4v-9c0-1.4,0.6-2.4,1.7-2.9c1.1-0.5,3.1-0.8,6-0.8h13.7v3.5H421c-0.9,0.1-1.4,0.3-1.6,0.7v7.1
							c0,0.6,0.2,1,0.6,1.2c0.2,0.1,0.7,0.2,1.4,0.2h0.6h11.6v3.5H419c-0.8,0-1.6-0.1-2.4-0.3C413.8,311.2,412.4,310.1,412.4,308.4z
							"/>
						<path class="st2" d="M433,312l9-14.3c0.9-1.4,2.7-2.2,5.5-2.2c2.7,0,4.6,0.7,5.5,2.2l9,14.3h-7.3l-2.2-3.5h-9.9l-2.2,3.5H433z
							 M444.6,305.2h5.7l-3.3-5.3L444.6,305.2z"/>
					</g>
				</g>
			</g>
			<g>

					<linearGradient id="SVGID_00000131333851980330651770000016058083293727093161_" gradientUnits="userSpaceOnUse" x1="176.1" y1="100.55" x2="377.5" y2="100.55" gradientTransform="matrix(1 0 0 -1 0 432)">
					<stop  offset="7.493364e-02" style="stop-color:#1DB1C2"/>
					<stop  offset="0.3427" style="stop-color:#2DB6C6"/>
					<stop  offset="0.7047" style="stop-color:#48BECC"/>
				</linearGradient>

					<rect x="176.1" y="268.4" style="fill:url(#SVGID_00000131333851980330651770000016058083293727093161_);" width="201.4" height="126.1"/>
				<g id="ERP">
					<g>
						<path class="st2" d="M234.3,339.2v-10.7c0-0.2,0.1-0.5,0.2-0.8c0.7-2.1,3.2-3.2,7.6-3.2h16.6v4h-14.5c-0.1,0-0.3,0.1-0.5,0.1
							c-0.9,0.2-1.3,0.5-1.3,1.1v2.1h16.3v4h-16.3v2.1c0,0.8,0.7,1.2,2.1,1.2h14.3v4h-15.4C237.3,343.1,234.3,341.8,234.3,339.2z"/>
						<path class="st2" d="M261,324.4h18.8c5.1,0,7.7,1.3,7.7,3.8v3.7c0,1.2-0.8,2.2-2.3,2.9c-1.1,0.5-2.3,0.8-3.8,0.9
							c-0.6,0-1.1,0.1-1.4,0.1l-1.2-0.1l9.1,7.4h-9.5l-8.4-6.9c-0.5-0.4-0.7-0.9-0.6-1.5c0.3-1.6,1.9-2.4,4.8-2.4h3.3
							c1.4,0,2.1-0.3,2.1-1v-1.7c0-0.6-0.7-1-2-1.1c-0.1,0-0.3-0.1-0.5-0.1h-8v14.7h-8V324.4z"/>
						<path class="st2" d="M289.7,343.1v-18.7h18.7c2.5,0,4.4,0.3,5.9,1c1.5,0.7,2.2,1.6,2.2,2.6v4.6c0,1.1-0.7,2.1-2.2,2.7
							c-1.3,0.6-3,0.9-5.2,0.9h-11.2v6.7H289.7z M297.7,332.2h7.8c1.9,0,2.8-0.3,2.8-1v-1.8c-0.1-0.6-0.8-0.9-2.1-1h-8.6V332.2z"/>
					</g>
				</g>
			</g>
			<g>

					<linearGradient id="SVGID_00000090262096158287736010000013451052135758068110_" gradientUnits="userSpaceOnUse" x1="51" y1="307.65" x2="252.4" y2="307.65" gradientTransform="matrix(1 0 0 -1 0 432)">
					<stop  offset="7.493364e-02" style="stop-color:#1DB1C2"/>
					<stop  offset="0.3427" style="stop-color:#2DB6C6"/>
					<stop  offset="0.7047" style="stop-color:#48BECC"/>
				</linearGradient>

					<rect x="51" y="61.3" style="fill:url(#SVGID_00000090262096158287736010000013451052135758068110_);" width="201.4" height="126.1"/>
				<g id="SAC">
					<g>
						<path class="st2" d="M108.8,116.4c0-0.3,0.1-0.6,0.2-0.9c0.9-1.8,3.3-2.7,7.2-2.7H132v3.9l-13.7,0.1c-1.1,0-1.7,0.3-1.7,0.9
							v1.2c0,0.1,0,0.2,0.1,0.3c0.2,0.5,0.8,0.7,2,0.8c0.1,0,0.3,0,0.5,0h5.6c1.7,0,3.2,0.2,4.4,0.7c1.9,0.6,2.9,1.6,2.9,2.9v3.7
							c0,1.4-1,2.5-3,3.2c-1.3,0.4-3,0.7-4.8,0.7h-15.4V127h13.6c1.2-0.2,1.8-0.6,1.8-1.1v-1.3c0-0.5-0.6-0.8-1.7-0.9h-6.5
							c-2.6,0-4.6-0.5-6.1-1.6c-0.8-0.6-1.2-1.3-1.2-2V116.4z"/>
						<path class="st2" d="M131.7,131l10-15.9c1-1.6,3.1-2.4,6.1-2.4c3.1,0,5.1,0.8,6.1,2.4l10,15.9h-8.2l-2.5-3.9h-11l-2.5,3.9
							H131.7z M144.6,123.4h6.4l-3.7-5.9L144.6,123.4z"/>
						<path class="st2" d="M163.9,126.9v-10c0-1.6,0.6-2.7,1.8-3.2c1.2-0.6,3.4-0.9,6.7-0.9h15.2v3.9h-14.1c-1,0.1-1.6,0.3-1.8,0.8
							v8c0,0.7,0.2,1.1,0.7,1.4c0.3,0.1,0.8,0.2,1.6,0.2h0.7h12.9v3.9h-16.4c-0.9,0-1.8-0.1-2.7-0.3
							C165.5,130,163.9,128.8,163.9,126.9z"/>
					</g>
				</g>
			</g>
		</g>
	</g>
</g>
</svg>
