<?xml version="1.0" encoding="utf-8"?>
<!-- Generator: Adobe Illustrator 27.7.0, SVG Export Plug-In . SVG Version: 6.00 Build 0)  -->
<svg version="1.1" id="Capa_1" xmlns="http://www.w3.org/2000/svg" xmlns:xlink="http://www.w3.org/1999/xlink" x="0px" y="0px"
	 viewBox="0 0 650 324" style="enable-background:new 0 0 650 324;" xml:space="preserve">
<style type="text/css">
	.st0{clip-path:url(#SVGID_00000085953116005699534270000004726415779198648483_);}
	.st1{fill:#006B8E;}
	.st2{fill:none;stroke:#00698C;stroke-width:3;}
	.st3{clip-path:url(#SVGID_00000029042114243555880070000012887885468845766042_);}
	.st4{fill-rule:evenodd;clip-rule:evenodd;fill:#006B8E;}
	.st5{fill:none;stroke:#006D90;stroke-width:4;stroke-linecap:square;stroke-linejoin:bevel;stroke-dasharray:8,8;}
	.st6{clip-path:url(#SVGID_00000142140725301515855600000016177738854293330054_);}
	.st7{fill:none;stroke:#00698B;stroke-width:3;stroke-linecap:square;stroke-miterlimit:10;}
	.st8{fill:none;stroke:#00698B;stroke-width:3;stroke-miterlimit:10;}
	.st9{fill-rule:evenodd;clip-rule:evenodd;fill:#00698B;}
	.st10{fill-rule:evenodd;clip-rule:evenodd;fill:#FFFFFF;filter:url(#Adobe_OpacityMaskFilter);}
	.st11{mask:url(#mask0_2317_5873_00000114048182455115933940000008400914921364475279_);}
	.st12{fill:#00698C;}
	.st13{fill-rule:evenodd;clip-rule:evenodd;fill:#00698C;}
	.st14{fill:none;stroke:#006D90;stroke-width:4;stroke-linejoin:bevel;stroke-dasharray:8,8;}
	.st15{fill:none;stroke:#006D90;stroke-width:4;}
</style>
<g>
	<defs>
		<rect id="SVGID_1_" width="650" height="324"/>
	</defs>
	<clipPath id="SVGID_00000091702427890950131770000011568496412440802200_">
		<use xlink:href="#SVGID_1_"  style="overflow:visible;"/>
	</clipPath>
	<g style="clip-path:url(#SVGID_00000091702427890950131770000011568496412440802200_);">
		<path class="st1" d="M191.9,40.2l12.7-12.7l-2.1-2.1l-11.2,11.2C191.6,37.8,191.9,39,191.9,40.2z"/>
		<path class="st1" d="M188,31.3c0.4,0.4,0.7,0.7,1,1.1l20.9-20.9l-2.1-2.1l-20.9,20.9C187.2,30.7,187.6,31,188,31.3z"/>
		<path class="st1" d="M182.7,28.1L194,16.8l-2.1-2.1l-12.7,12.7C180.3,27.5,181.5,27.7,182.7,28.1z"/>
		<path class="st1" d="M178.4,57.5c-4.2,0-8.5-1.6-11.7-4.8c-6.5-6.5-6.5-17,0-23.4l11.7-11.7l2.1,2.1l-11.7,11.7
			c-5.3,5.3-5.3,13.9,0,19.2s13.9,5.3,19.2,0l11.7-11.7l2.1,2.1l-11.7,11.7C186.9,55.9,182.7,57.5,178.4,57.5L178.4,57.5z"/>
		<path class="st1" d="M178.4,50c-4.9,0-8.9-4-8.9-8.9h3c0,3.2,2.6,5.9,5.9,5.9V50z"/>
		<path class="st2" d="M687.9,261.6l-9.8,4c-4.2,1.7-9-0.3-10.8-4.5l-2.3-5.5c-0.9-2.1-2.9-3.6-5.2-3.7l-1.8-0.1l-2.2-5.3l1-1
			c1.8-1.7,2.3-4.3,1.4-6.6l-2.1-5.1c-1.7-4.2,0.3-9,4.5-10.8l9.8-4"/>
		<g>
			<defs>
				<rect id="SVGID_00000124872424805716894010000016439553205046355361_" x="269" y="102.5" width="300" height="150"/>
			</defs>
			<clipPath id="SVGID_00000024682587500616173740000013031475581601192094_">
				<use xlink:href="#SVGID_00000124872424805716894010000016439553205046355361_"  style="overflow:visible;"/>
			</clipPath>
			<g style="clip-path:url(#SVGID_00000024682587500616173740000013031475581601192094_);">
				<path class="st4" d="M342.9,144.8c-17.9,0-31.7,13.8-31.7,32.7c0,18.2,13.7,32.3,31.4,32.7c7.8,0,15.4-3.1,25.2-11.1
					c7.1-5.8,14.1-13,22.3-21.9c-8-8.6-14.9-15.7-21.8-21.4C358.4,147.8,350.8,144.8,342.9,144.8z M418.7,146.1
					c-7.9-8.4-15.9-16.5-23.9-23c-14.1-11.5-30.8-20.6-51.9-20.6c-42.1,0-73.9,33.7-73.9,75c0,40.8,31.7,74.3,73,75l0.2,0h0.2
					c21.1,0,37.8-9.1,51.9-20.6c8.2-6.7,16.4-15,24.4-23.6c8.1,8.6,16.2,16.9,24.4,23.6c14.1,11.5,30.8,20.6,51.9,20.6
					c41.5,0,73.9-33.6,73.9-75c0-41.7-33.2-75-74.4-75c-21.1,0-37.8,9.1-51.9,20.6C434.6,129.7,426.6,137.7,418.7,146.1z
					 M447.4,177.2c8.2,8.9,15.3,16.1,22.3,21.9c9.8,8,17.4,11.1,25.3,11.1c17.5,0,31.7-14,31.7-32.7c0-18.5-14.5-32.7-32.3-32.7
					c-7.9,0-15.5,3.1-25.3,11.1C462.3,161.5,455.5,168.6,447.4,177.2z"/>
			</g>
		</g>
		<path class="st5" d="M425,238.5l18,56"/>
		<path class="st5" d="M635.5,242.3L577,219.9"/>
		<path class="st5" d="M274,229.5l-35,15"/>
		<g>
			<defs>
				
					<rect id="SVGID_00000065033959674157521510000010636589227351729323_" x="187.3" y="236.8" transform="matrix(0.9683 -0.2496 0.2496 0.9683 -57.5902 59.9402)" width="40.5" height="40.5"/>
			</defs>
			<clipPath id="SVGID_00000166661359538185782830000005096957228723740075_">
				<use xlink:href="#SVGID_00000065033959674157521510000010636589227351729323_"  style="overflow:visible;"/>
			</clipPath>
			<g style="clip-path:url(#SVGID_00000166661359538185782830000005096957228723740075_);">
				<path class="st7" d="M217.6,245.1l-24.7,6.4l4.1,16l24.7-6.4L217.6,245.1z"/>
				<path class="st8" d="M201.5,254.7l1.9,7.3"/>
				<path class="st7" d="M199.9,254.4l2.9-0.7"/>
				<path class="st7" d="M201.8,261.6l2.9-0.7"/>
				<path class="st7" d="M225.8,271.7l-27.2,7c-2.5,0.6-5.1-0.9-5.7-3.4l-7-27.2c-0.6-2.5,0.9-5.1,3.4-5.7l27.2-7
					c2.5-0.6,5.1,0.9,5.7,3.4l7,27.2C229.9,268.5,228.3,271,225.8,271.7z"/>
			</g>
		</g>
		<path class="st9" d="M121.6,159.1c-0.4,0.1-0.8-0.1-0.9-0.5l-1.1-3.6c-0.6-2-2.7-3.1-4.7-2.5l-0.7,0.2l0.9,2.9l0.7-0.2
			c0.4-0.1,0.8,0.1,0.9,0.5l1.1,3.6c0.2,0.8,0.7,1.5,1.4,1.9c-0.3,0.7-0.3,1.6-0.1,2.4l1.1,3.6c0.1,0.4-0.1,0.8-0.5,0.9l-0.7,0.2
			l0.9,2.9l0.7-0.2c2-0.6,3.1-2.7,2.5-4.7l-1.1-3.6c-0.1-0.4,0.1-0.8,0.5-0.9l0.7-0.2l-0.9-2.9L121.6,159.1z"/>
		<path class="st9" d="M106.6,158.8l1.1,3.6c0.1,0.4-0.1,0.8-0.5,0.9l-0.7,0.2l0.9,2.9l0.7-0.2c0.4-0.1,0.8,0.1,0.9,0.5l1.1,3.6
			c0.6,2,2.7,3.1,4.7,2.5l0.7-0.2l-0.9-2.9l-0.7,0.2c-0.4,0.1-0.8-0.1-0.9-0.5l-1.1-3.6c-0.2-0.8-0.7-1.5-1.4-1.9
			c0.3-0.7,0.3-1.6,0.1-2.4l-1.1-3.6c-0.1-0.4,0.1-0.8,0.5-0.9l0.7-0.2l-0.9-2.9l-0.7,0.2C107.2,154.8,106.1,156.9,106.6,158.8z"/>
		<path class="st9" d="M134.5,156.3c0.8,2.6-0.7,5.4-3.3,6.2l-0.6,0.2c-0.1-3.1-0.6-6.9-1.5-11.3l3.6-1.1L134.5,156.3z M110.4,178.1
			c-1.5-1.1-6.3-5.2-10.8-16.2c-0.6-1.4-1.8-2.5-2.9-3.6c-0.7-0.7-1.5-1.4-2-2.1l9.9-3l13.6-4.1l6.7-2c4.4,15.6,2.3,24,1.5,26.2
			L110.4,178.1z M109.3,184.7l22.3-6.7l-0.9-2.9l-22.3,6.7L109.3,184.7z M136,179.8c0.8-0.2,1.6,0.2,1.9,1l1.3,4.3l-32.3,9.7
			l-1.3-4.3c-0.2-0.8,0.2-1.6,1-1.9l0.7-0.2l28-8.4L136,179.8z M106.1,148c-0.2-0.8,0.2-1.6,1-1.9l5-1.5c0.8-0.2,1.6,0.2,1.9,1
			l0.4,1.4l-7.9,2.4L106.1,148z M128.3,148.4c-0.3-1.2-0.6-2.4-1-3.6l-0.4-1.4l-9.5,2.9l-0.4-1.4c-0.7-2.4-3.2-3.7-5.6-3l-5,1.5
			c-2.4,0.7-3.7,3.2-3,5.6l0.4,1.4l-13.1,3.9l0.4,1.4c0.6,2,2.2,3.5,3.6,4.8c1,0.9,1.9,1.8,2.2,2.5c3.7,9.1,7.7,13.9,10.2,16.2
			c-1.2,0.7-1.8,2.1-1.4,3.5l0.9,2.9l-0.7,0.2c-2.4,0.7-3.7,3.2-3,5.6l2.2,7.2l38.1-11.4l-2.2-7.2c-0.7-2.4-3.2-3.7-5.6-3l-0.7,0.2
			l-0.9-2.9c-0.5-1.6-2.2-2.5-3.7-2l-0.1,0c0.4-1.5,0.7-3.7,0.8-6.5l1.4-0.4c4.2-1.3,6.6-5.7,5.3-9.9l-2.7-8.9L128.3,148.4z"/>
		<defs>
			<filter id="Adobe_OpacityMaskFilter" filterUnits="userSpaceOnUse">
				<feColorMatrix  type="matrix" values="1 0 0 0 0  0 1 0 0 0  0 0 1 0 0  0 0 0 1 0"/>
			</filter>
		</defs>
		<mask maskUnits="userSpaceOnUse" id="mask0_2317_5873_00000114048182455115933940000008400914921364475279_">
			<path class="st10" d="M98.2,205.2l57.5-17.2l-17.2-57.5L81,147.7L98.2,205.2z"/>
		</mask>
		<g class="st11">
		</g>
		<path class="st12" d="M609.1,53.9l-2.7-1.3c4.4-9.4,15.3-13,25-8.5c9.7,4.5,13.9,15.2,9.5,24.6l-6.2,13.4l-2.7-1.3l6.2-13.4
			c3.7-7.9,0.1-16.8-8.1-20.7C621.9,43,612.8,46,609.1,53.9z"/>
		<path class="st12" d="M640.1,55.2c-0.8,0.3-1.6-0.1-1.9-0.9c-0.3-0.8,0.1-1.6,0.9-1.9l9.3-3.4c0.8-0.3,1.6,0.1,1.9,0.9
			c0.3,0.8-0.1,1.6-0.9,1.9L640.1,55.2z"/>
		<path class="st12" d="M620.2,43.6c0.3,0.8-0.1,1.6-0.9,1.9c-0.8,0.3-1.6-0.1-1.9-0.9l-3.4-9.3c-0.3-0.8,0.1-1.6,0.9-1.9
			c0.8-0.3,1.6,0.1,1.9,0.9L620.2,43.6z"/>
		<path class="st13" d="M599.9,76.2c5.9,4.5,14.2,3.4,18.7-2.5c4.5-5.9,3.4-14.2-2.5-18.7c-5.9-4.5-14.2-3.4-18.7,2.5
			C593,63.3,594.1,71.7,599.9,76.2z M614.3,57.4c4.5,3.5,5.4,10,1.9,14.5c-3.5,4.5-10,5.4-14.5,1.9c-4.5-3.5-5.4-10-1.9-14.5
			C603.3,54.8,609.8,53.9,614.3,57.4z"/>
		<path class="st12" d="M621.9,78.1l-5.4-4.1l1.8-2.4l3,2.3l1.6-2.1l14.7,11.3l-6,7.8l-12.5-9.6l1.8-2.4l10.2,7.8l2.3-3l-9.9-7.6
			L621.9,78.1z"/>
		<path class="st12" d="M604.1,63.3l-2.4-1.8c2.8-3.7,8.1-4.4,11.8-1.6l-1.8,2.4C609.3,60.4,605.9,60.9,604.1,63.3z"/>
		<path class="st13" d="M632.2,60.4c1.1,0.5,2.5,0,3-1.1c0.5-1.1,0-2.5-1.1-3c-1.1-0.5-2.5,0-3,1.1C630.6,58.5,631,59.9,632.2,60.4z
			"/>
		<path class="st13" d="M618.4,54c1.1,0.5,2.5,0,3-1.1c0.5-1.1,0-2.5-1.1-3c-1.1-0.5-2.5,0-3,1.1C616.8,52.1,617.3,53.4,618.4,54z"
			/>
		<path class="st14" d="M433.5,28l-16,98.5"/>
		<path class="st5" d="M210,50.5l68,68"/>
		<path class="st5" d="M600.5,85.5l-38.5,32"/>
		<path class="st5" d="M149,43.5l-122,40"/>
		<path class="st5" d="M196,227.5l-41-34"/>
		<path class="st5" d="M87,179.5l-62,55"/>
		<circle class="st15" cx="11" cy="88" r="8"/>
		<circle class="st15" cx="437" cy="11" r="8"/>
		<circle class="st15" cx="448" cy="313" r="8"/>
		<circle class="st15" cx="11" cy="247" r="8"/>
	</g>
</g>
</svg>
