<?xml version="1.0" encoding="utf-8"?>
<!-- Generator: Adobe Illustrator 27.7.0, SVG Export Plug-In . SVG Version: 6.00 Build 0)  -->
<svg version="1.1" id="Capa_1" xmlns="http://www.w3.org/2000/svg" xmlns:xlink="http://www.w3.org/1999/xlink" x="0px" y="0px"
	 viewBox="0 0 641 519" style="enable-background:new 0 0 641 519;" xml:space="preserve">
<style type="text/css">
	.st0{opacity:0.87;}
	.st1{opacity:0.5;}
	.st2{fill:url(#SVGID_1_);fill-opacity:0.4;}
	.st3{fill:url(#SVGID_00000107586707376978752130000016894105590182577290_);fill-opacity:0.2;}
	.st4{fill:url(#SVGID_00000179613002622670666170000009426267153930157475_);fill-opacity:0.8;}
	.st5{fill:url(#SVGID_00000169542796460757317540000003651110858549889180_);fill-opacity:0.4;}
	.st6{fill:url(#SVGID_00000105411368295019688830000010058112799646313356_);fill-opacity:0.2;}
	.st7{fill:url(#SVGID_00000026155259299805270680000006571867274205997229_);fill-opacity:0.8;}
	.st8{fill:url(#_x33__00000054258527906895442090000013426298756390001065_);}
	.st9{fill:url(#SVGID_00000005951099889836523440000002334342877246056124_);}
</style>
<g>
	<g class="st0">
		<g class="st1">

				<linearGradient id="SVGID_1_" gradientUnits="userSpaceOnUse" x1="-2166.5178" y1="517.436" x2="-2590.2573" y2="630.2863" gradientTransform="matrix(-1 0 0 1 -1979.125 -113.795)">
				<stop  offset="0" style="stop-color:#000000"/>
				<stop  offset="1" style="stop-color:#000000;stop-opacity:0"/>
			</linearGradient>
			<ellipse class="st2" cx="373.5" cy="453.2" rx="229.1" ry="9.2"/>
		</g>
		<g>

				<linearGradient id="SVGID_00000178182867210740385220000005404510530332203671_" gradientUnits="userSpaceOnUse" x1="102.2006" y1="606.5479" x2="-308.476" y2="686.0104" gradientTransform="matrix(0.9991 -4.294460e-02 0.2846 0.9586 319.9211 -160.7938)">
				<stop  offset="0" style="stop-color:#000000"/>
				<stop  offset="1" style="stop-color:#000000;stop-opacity:0"/>
			</linearGradient>
			<path style="fill:url(#SVGID_00000178182867210740385220000005404510530332203671_);fill-opacity:0.2;" d="M419.1,445.9
				c119.6-3.3,218.9-0.8,221.9,5.6s-91.6,14.2-211.2,17.5s-218.9,0.8-221.9-5.6C204.9,457,299.5,449.2,419.1,445.9z"/>
		</g>
		<g>

				<radialGradient id="SVGID_00000136374371585945918450000015318647208369812369_" cx="-1269.8815" cy="-9.2701" r="1" gradientTransform="matrix(218.0004 0 0 -60.1688 277217 -103.0027)" gradientUnits="userSpaceOnUse">
				<stop  offset="0" style="stop-color:#000000"/>
				<stop  offset="0.64" style="stop-color:#000000;stop-opacity:0.98"/>
				<stop  offset="1" style="stop-color:#000000;stop-opacity:0"/>
			</radialGradient>

				<ellipse style="fill:url(#SVGID_00000136374371585945918450000015318647208369812369_);fill-opacity:0.8;" cx="382.3" cy="453.5" rx="218" ry="2.9"/>
		</g>
		<g class="st1">

				<linearGradient id="SVGID_00000160871042247381677650000009781427744605271718_" gradientUnits="userSpaceOnUse" x1="-2214.2422" y1="545.5245" x2="-2388.6321" y2="591.9681" gradientTransform="matrix(-1 0 0 1 -2180.688 -113.795)">
				<stop  offset="0" style="stop-color:#000000"/>
				<stop  offset="1" style="stop-color:#000000;stop-opacity:0"/>
			</linearGradient>

				<ellipse style="fill:url(#SVGID_00000160871042247381677650000009781427744605271718_);fill-opacity:0.4;" cx="110.1" cy="452.1" rx="94.3" ry="9.2"/>
		</g>
		<g>

				<linearGradient id="SVGID_00000077310482683158631960000005382853398765414547_" gradientUnits="userSpaceOnUse" x1="-92.7929" y1="621.6247" x2="-265.188" y2="654.9818" gradientTransform="matrix(0.9991 -4.294460e-02 0.2846 0.9586 118.3591 -160.7938)">
				<stop  offset="0" style="stop-color:#000000"/>
				<stop  offset="1" style="stop-color:#000000;stop-opacity:0"/>
			</linearGradient>
			<path style="fill:url(#SVGID_00000077310482683158631960000005382853398765414547_);fill-opacity:0.2;" d="M128.9,444.8
				c49.2-3.3,90.1-0.8,91.3,5.6c1.2,6.4-37.7,14.2-86.9,17.5s-90.1,0.8-91.3-5.6S79.7,448.1,128.9,444.8z"/>
		</g>
		<g>

				<radialGradient id="SVGID_00000034076695758570655510000017225359368822755253_" cx="-1266.7173" cy="-9.2524" r="1" gradientTransform="matrix(80.044 0 0 -60.1688 101497.1953 -103.0027)" gradientUnits="userSpaceOnUse">
				<stop  offset="0" style="stop-color:#000000"/>
				<stop  offset="0.64" style="stop-color:#000000;stop-opacity:0.98"/>
				<stop  offset="1" style="stop-color:#000000;stop-opacity:0"/>
			</radialGradient>

				<ellipse style="fill:url(#SVGID_00000034076695758570655510000017225359368822755253_);fill-opacity:0.8;" cx="104.1" cy="452.4" rx="80.1" ry="2.9"/>
		</g>
	</g>
</g>
<linearGradient id="_x33__00000031905001307454149630000007928450905734513821_" gradientUnits="userSpaceOnUse" x1="117.0059" y1="361.2362" x2="368.9629" y2="191.4993" gradientTransform="matrix(1 0 0 -1 0 520)">
	<stop  offset="0" style="stop-color:#006181"/>
	<stop  offset="0.5922" style="stop-color:#006D90"/>
	<stop  offset="0.6089" style="stop-color:#006D91"/>
</linearGradient>
<path id="_x33_" style="fill:url(#_x33__00000031905001307454149630000007928450905734513821_);" d="M418.1,60.8
	c3.3,4.7,3.3,11,0,15.7l-40.2,57.1l-27.5,39l-27.5,39.1l-107.1,152l-59.2,84.1c-2.6,3.6-6.7,5.8-11.1,5.8H67.9
	c-11.1,0-17.5-12.5-11.1-21.5l48.2-68.4L267.4,133L295,93.9l27.5-39L357,5.8c5.4-7.7,16.9-7.7,22.3,0l15,21.2L418.1,60.8z"/>
<linearGradient id="SVGID_00000145029758986188003910000003516520773223989404_" gradientUnits="userSpaceOnUse" x1="302.1043" y1="255.2568" x2="580.4351" y2="63.8234" gradientTransform="matrix(1 0 0 -1 0 520)">
	<stop  offset="7.493364e-02" style="stop-color:#1DB1C2"/>
	<stop  offset="0.3427" style="stop-color:#2DB6C6"/>
	<stop  offset="0.7047" style="stop-color:#48BECC"/>
</linearGradient>
<path style="fill:url(#SVGID_00000145029758986188003910000003516520773223989404_);" d="M575,453.6H198.1
	c-11.1,0-17.5-12.5-11.1-21.5l44.1-62.6c2.6-3.6,6.7-5.8,11.1-5.8h159.5c11.1,0,17.5-12.5,11.1-21.5L388,306.9l-28.4-40.2l0,0
	l-22.5-32c-3.3-4.7-3.3-11,0-15.7l22-31.2l27.5-39l34.6-49.1c5.4-7.7,16.9-7.7,22.3,0l16.9,24l22.8,32.4c3.3,4.7,3.3,11,0,15.7
	l-34.7,49.3c-3.3,4.7-3.3,11,0,15.7L538,363.7l48.2,68.4C592.5,441.2,586.1,453.6,575,453.6z"/>
</svg>
