<?xml version="1.0" encoding="utf-8"?>
<!-- Generator: Adobe Illustrator 27.7.0, SVG Export Plug-In . SVG Version: 6.00 Build 0)  -->
<svg version="1.1" id="Capa_1" xmlns="http://www.w3.org/2000/svg" xmlns:xlink="http://www.w3.org/1999/xlink" x="0px" y="0px"
	 viewBox="0 0 641 519" style="enable-background:new 0 0 641 519;" xml:space="preserve">
<style type="text/css">
	.st0{opacity:0.87;}
	.st1{opacity:0.5;}
	.st2{fill:url(#SVGID_1_);fill-opacity:0.4;}
	.st3{fill:url(#SVGID_00000044888760767075124840000013746776418625076621_);fill-opacity:0.2;}
	.st4{fill:url(#SVGID_00000006707101238513807930000015307793073223798439_);fill-opacity:0.8;}
	.st5{fill:url(#SVGID_00000055673453027898261960000006198143522405127588_);fill-opacity:0.4;}
	.st6{fill:url(#SVGID_00000164514411224487998490000016438981290976886670_);fill-opacity:0.2;}
	.st7{fill:url(#SVGID_00000127727135854727572600000007193918856987162012_);fill-opacity:0.8;}
	.st8{fill:url(#_x33__00000031185225967664007940000017557301219309022380_);}
	.st9{fill:url(#SVGID_00000067920015409563618810000005977768179843933081_);}
</style>
<g>
	<g class="st0">
		<g class="st1">
			
				<linearGradient id="SVGID_1_" gradientUnits="userSpaceOnUse" x1="-886.6432" y1="558.4036" x2="-1291.9229" y2="450.4695" gradientTransform="matrix(-1 0 0 -1 -701.125 966.205)">
				<stop  offset="0" style="stop-color:#000000"/>
				<stop  offset="1" style="stop-color:#000000;stop-opacity:0"/>
			</linearGradient>
			<ellipse class="st2" cx="363.5" cy="455.2" rx="219.1" ry="9.2"/>
		</g>
		<g>
			
				<linearGradient id="SVGID_00000129888384042179380250000004703152822720386199_" gradientUnits="userSpaceOnUse" x1="171.4377" y1="507.1825" x2="-221.5912" y2="431.1347" gradientTransform="matrix(0.9991 -4.294460e-02 -0.2846 -0.9586 548.1762 913.5278)">
				<stop  offset="0" style="stop-color:#000000"/>
				<stop  offset="1" style="stop-color:#000000;stop-opacity:0"/>
			</linearGradient>
			<path style="fill:url(#SVGID_00000129888384042179380250000004703152822720386199_);fill-opacity:0.2;" d="M407.1,447.9
				c114.4-3.3,209.4-0.8,212.2,5.6c2.8,6.4-87.6,14.2-202,17.5c-114.4,3.3-209.4,0.8-212.2-5.6C202.3,459,292.7,451.2,407.1,447.9z"
				/>
		</g>
		<g>
			
				<radialGradient id="SVGID_00000182530867060467943310000010415115463641950629_" cx="-634.3156" cy="804.6498" r="1" gradientTransform="matrix(186.0732 0 0 60.1688 118378.625 -47958.043)" gradientUnits="userSpaceOnUse">
				<stop  offset="0" style="stop-color:#000000"/>
				<stop  offset="0.64" style="stop-color:#000000;stop-opacity:0.98"/>
				<stop  offset="1" style="stop-color:#000000;stop-opacity:0"/>
			</radialGradient>
			
				<ellipse style="fill:url(#SVGID_00000182530867060467943310000010415115463641950629_);fill-opacity:0.8;" cx="349.5" cy="455.5" rx="186.1" ry="2.9"/>
		</g>
		<g class="st1">
			
				<linearGradient id="SVGID_00000038374815676273689700000008604112996828897690_" gradientUnits="userSpaceOnUse" x1="-926.0925" y1="535.6804" x2="-1126.0386" y2="482.4307" gradientTransform="matrix(-1 0 0 -1 -902.688 966.205)">
				<stop  offset="0" style="stop-color:#000000"/>
				<stop  offset="1" style="stop-color:#000000;stop-opacity:0"/>
			</linearGradient>
			
				<ellipse style="fill:url(#SVGID_00000038374815676273689700000008604112996828897690_);fill-opacity:0.4;" cx="111.2" cy="453.9" rx="108.1" ry="9.2"/>
		</g>
		<g>
			
				<linearGradient id="SVGID_00000047032370573585760210000010779166686116338335_" gradientUnits="userSpaceOnUse" x1="11.1331" y1="495.1756" x2="-185.6642" y2="457.0969" gradientTransform="matrix(0.9991 -4.294460e-02 -0.2846 -0.9586 346.6142 913.5278)">
				<stop  offset="0" style="stop-color:#000000"/>
				<stop  offset="1" style="stop-color:#000000;stop-opacity:0"/>
			</linearGradient>
			<path style="fill:url(#SVGID_00000047032370573585760210000010779166686116338335_);fill-opacity:0.2;" d="M132.7,446.6
				c56.4-3.3,103.3-0.8,104.7,5.6c1.4,6.4-43.2,14.2-99.6,17.5c-56.4,3.3-103.3,0.8-104.7-5.6C31.7,457.7,76.3,449.9,132.7,446.6z"
				/>
		</g>
		<g>
			
				<radialGradient id="SVGID_00000039120697460886663960000012814651595360357046_" cx="-634.4644" cy="804.6284" r="1" gradientTransform="matrix(91.7816 0 0 60.1688 58336.457 -47958.043)" gradientUnits="userSpaceOnUse">
				<stop  offset="0" style="stop-color:#000000"/>
				<stop  offset="0.64" style="stop-color:#000000;stop-opacity:0.98"/>
				<stop  offset="1" style="stop-color:#000000;stop-opacity:0"/>
			</radialGradient>
			
				<ellipse style="fill:url(#SVGID_00000039120697460886663960000012814651595360357046_);fill-opacity:0.8;" cx="104.3" cy="454.2" rx="91.8" ry="2.9"/>
		</g>
	</g>
</g>
<linearGradient id="_x33__00000183227526824583556000000018140494169379376550_" gradientUnits="userSpaceOnUse" x1="117.0091" y1="158.7591" x2="368.9661" y2="328.496">
	<stop  offset="0" style="stop-color:#006181"/>
	<stop  offset="0.5922" style="stop-color:#006D90"/>
	<stop  offset="0.6089" style="stop-color:#006D91"/>
</linearGradient>
<path id="_x33_" style="fill:url(#_x33__00000183227526824583556000000018140494169379376550_);" d="M418.1,60.8
	c3.3,4.7,3.3,11,0,15.7l-40.2,57.1l-27.5,39l-27.5,39.1l-107.1,152l-59.2,84.1c-2.6,3.6-6.7,5.8-11.1,5.8H67.9
	c-11.1,0-17.5-12.5-11.1-21.5l48.2-68.4L267.4,133L295,93.9l27.5-39L357,5.8c5.4-7.7,16.9-7.7,22.3,0l15,21.2L418.1,60.8z"/>
<linearGradient id="SVGID_00000109003709813725536360000009403174791871045008_" gradientUnits="userSpaceOnUse" x1="302.1253" y1="264.7066" x2="580.4626" y2="456.1444">
	<stop  offset="7.493364e-02" style="stop-color:#1DB1C2"/>
	<stop  offset="0.3427" style="stop-color:#2DB6C6"/>
	<stop  offset="0.7047" style="stop-color:#48BECC"/>
</linearGradient>
<path style="fill:url(#SVGID_00000109003709813725536360000009403174791871045008_);" d="M575,453.6H198.1
	c-11.1,0-17.5-12.5-11.1-21.5l44.1-62.6c2.6-3.6,6.7-5.8,11.1-5.8h159.5c11.1,0,17.5-12.5,11.1-21.5L388,306.9l-28.4-40.2v0
	l-22.5-32c-3.3-4.7-3.3-11,0-15.7l22-31.2l27.5-39l34.6-49.1c5.4-7.7,16.9-7.7,22.3,0l16.9,24l22.8,32.4c3.3,4.7,3.3,11,0,15.7
	l-34.7,49.3c-3.3,4.7-3.3,11,0,15.7L538,363.7l48.2,68.4C592.5,441.2,586.1,453.6,575,453.6z"/>
</svg>
